<svg xmlns="http://www.w3.org/2000/svg" width="100" height="87" fill="none">
  <path fill="#828282" d="M40.428 82.165v.224H38.88v-.16l.96-1.486h.222l-.239.43-.634.992h1.24Zm-.298-1.422v2.144h-.273v-2.144h.273Zm1.196 2.144h-.447l.003-.231h.444a.71.71 0 0 0 .383-.096.598.598 0 0 0 .23-.271.998.998 0 0 0 .078-.41v-.13c0-.123-.015-.232-.044-.327a.662.662 0 0 0-.13-.243.546.546 0 0 0-.209-.151.718.718 0 0 0-.281-.052h-.483v-.233h.483c.14 0 .268.024.384.071a.827.827 0 0 1 .299.202c.084.087.15.193.194.318.045.123.068.263.068.418v.128c0 .155-.023.295-.068.42a.855.855 0 0 1-.502.518c-.118.046-.252.069-.402.069Zm-.295-2.144v2.144h-.285v-2.144h.285ZM55.448 82.193l-.218-.056.108-1.067h1.1v.252h-.869l-.065.583a.68.68 0 0 1 .358-.093c.1 0 .188.017.267.052a.546.546 0 0 1 .2.144.642.642 0 0 1 .128.226c.03.089.044.187.044.296a.902.902 0 0 1-.043.284.562.562 0 0 1-.337.375.77.77 0 0 1-.299.054.842.842 0 0 1-.245-.035.63.63 0 0 1-.207-.11.599.599 0 0 1-.147-.186.746.746 0 0 1-.07-.262h.259c.011.08.035.148.07.203a.346.346 0 0 0 .139.125.465.465 0 0 0 .201.041.414.414 0 0 0 .172-.034.342.342 0 0 0 .127-.097.432.432 0 0 0 .078-.153.674.674 0 0 0 0-.39.43.43 0 0 0-.084-.152.367.367 0 0 0-.134-.1.43.43 0 0 0-.182-.037.462.462 0 0 0-.208.037.787.787 0 0 0-.143.1Zm2.002 1.02h-.447l.003-.23h.444a.71.71 0 0 0 .383-.096.598.598 0 0 0 .23-.271.998.998 0 0 0 .078-.41v-.13c0-.123-.015-.232-.044-.327a.662.662 0 0 0-.13-.243.548.548 0 0 0-.209-.152.72.72 0 0 0-.281-.051h-.483v-.233h.483c.14 0 .268.024.384.07a.825.825 0 0 1 .299.202c.084.088.15.194.194.318.046.124.068.263.068.418v.129c0 .155-.022.294-.068.419a.853.853 0 0 1-.502.518c-.118.046-.252.07-.402.07Zm-.296-2.143v2.143h-.284V81.07h.285ZM72.275 81.067h.024v.231h-.024a.827.827 0 0 0-.362.07.594.594 0 0 0-.231.188.768.768 0 0 0-.124.262 1.201 1.201 0 0 0-.037.296v.315c0 .095.012.18.034.253a.569.569 0 0 0 .093.184.41.41 0 0 0 .132.113.384.384 0 0 0 .324.003.356.356 0 0 0 .124-.101.468.468 0 0 0 .078-.156.711.711 0 0 0 .003-.381.49.49 0 0 0-.072-.16.346.346 0 0 0-.295-.151.423.423 0 0 0-.212.056.482.482 0 0 0-.16.144.388.388 0 0 0-.07.193l-.145-.002a.91.91 0 0 1 .077-.28.597.597 0 0 1 .14-.192.533.533 0 0 1 .19-.11.701.701 0 0 1 .501.026c.078.04.142.094.192.162.05.067.087.142.11.227a.92.92 0 0 1-.006.542.671.671 0 0 1-.128.232.576.576 0 0 1-.207.156.69.69 0 0 1-.288.056.624.624 0 0 1-.303-.07.65.65 0 0 1-.215-.192.874.874 0 0 1-.128-.265 1.05 1.05 0 0 1-.043-.296v-.128c0-.151.016-.3.046-.445.03-.145.083-.276.158-.394a.808.808 0 0 1 .313-.281 1.1 1.1 0 0 1 .511-.105Zm1.301 2.146h-.447l.003-.23h.444a.71.71 0 0 0 .383-.096.598.598 0 0 0 .23-.271.998.998 0 0 0 .078-.41v-.13c0-.123-.015-.232-.044-.327a.664.664 0 0 0-.13-.243.548.548 0 0 0-.209-.152.72.72 0 0 0-.281-.051h-.483v-.233h.483c.14 0 .268.024.384.07a.827.827 0 0 1 .299.202c.084.088.15.194.194.318.045.124.068.263.068.418v.129c0 .155-.023.294-.068.419a.854.854 0 0 1-.502.518c-.119.046-.252.07-.402.07Zm-.295-2.143v2.143h-.285V81.07h.285ZM87.524 81.07v.154l-.887 1.99h-.287l.886-1.92h-1.16v-.224h1.448Zm.962 2.144h-.448l.003-.231h.445a.71.71 0 0 0 .382-.096.598.598 0 0 0 .23-.27.999.999 0 0 0 .078-.41v-.131c0-.123-.015-.232-.044-.327a.661.661 0 0 0-.13-.243.548.548 0 0 0-.209-.151.72.72 0 0 0-.28-.052h-.484v-.233h.483c.14 0 .269.024.384.071a.827.827 0 0 1 .3.202c.084.087.148.193.194.318.045.123.067.263.067.418v.128c0 .155-.022.295-.067.42a.855.855 0 0 1-.502.518c-.12.046-.253.069-.402.069Zm-.296-2.144v2.144h-.284V81.07h.284Z"/>
  <rect width="13.184" height="9.332" x="14.97" y="77.626" fill="#E7E7E7" fill-opacity=".92" rx="4.666"/>
  <path fill="#151515" d="M20.952 83.025v.331h-1.466v-.283l.693-.743c.07-.078.125-.146.165-.205.04-.06.07-.113.087-.16a.39.39 0 0 0-.004-.303.241.241 0 0 0-.096-.11.286.286 0 0 0-.153-.038.296.296 0 0 0-.168.047.299.299 0 0 0-.106.131.484.484 0 0 0-.035.19h-.426a.69.69 0 0 1 .35-.605.779.779 0 0 1 .394-.095c.15 0 .277.024.38.073a.512.512 0 0 1 .235.21.62.62 0 0 1 .081.323c0 .07-.011.14-.034.208a.931.931 0 0 1-.097.2 1.604 1.604 0 0 1-.15.2 4.561 4.561 0 0 1-.196.21l-.372.419h.918Zm.967.331h-.466l.003-.344h.463a.524.524 0 0 0 .293-.079c.08-.053.14-.13.18-.23a.97.97 0 0 0 .062-.367v-.105c0-.11-.012-.206-.035-.29a.575.575 0 0 0-.102-.21.424.424 0 0 0-.166-.128.549.549 0 0 0-.227-.044h-.48v-.346h.48c.143 0 .274.024.393.073a.886.886 0 0 1 .512.532c.048.124.072.263.072.416v.102c0 .152-.024.29-.072.416a.894.894 0 0 1-.512.531c-.12.049-.252.073-.398.073Zm-.216-2.143v2.143h-.442v-2.143h.442Z"/>
  <path stroke="#6C5FBC" stroke-linecap="round" stroke-linejoin="round" stroke-width=".944" d="M1.124 63.278c5.255 0 5.763 6.841 11.357 6.841 5.594 0 4.238-19.444 9.493-19.444s2.373-16.385 9.662-16.385c7.289 0 3.899 16.385 10.51 16.385 6.61 0 5.593-19.126 9.831-19.126 4.238 0 3.051 11.383 8.137 11.383 5.085 0 2.712-18.776 8.136-18.776 5.424 0 4.916 8.196 9.832 8.196s5.424 9.5 12.205 9.5c6.78 0 2.542 10.59 8.984 10.59"/>
  <path fill="#C5BFED" stroke="#6C5FBC" stroke-width="1.054" d="M84.436 35.875c0 1.001-.755 1.756-1.619 1.756s-1.62-.755-1.62-1.756c0-1 .756-1.756 1.62-1.756.864 0 1.62.755 1.62 1.756Z"/>
  <rect width="12.175" height="5.653" x="82.524" y="25.481" fill="#6C5FBC" rx="2.826"/>
  <path fill="#fff" d="M86.627 28.82a.501.501 0 0 1-.072.257.543.543 0 0 1-.205.198.743.743 0 0 1-.319.09v.213h-.168v-.216a.749.749 0 0 1-.425-.158.475.475 0 0 1-.166-.37h.396c.01.127.075.204.195.23v-.503a2.319 2.319 0 0 1-.306-.095.493.493 0 0 1-.2-.153.447.447 0 0 1-.085-.287c0-.153.055-.277.164-.374a.718.718 0 0 1 .427-.166v-.213h.168v.213a.68.68 0 0 1 .403.153.512.512 0 0 1 .172.363h-.398a.235.235 0 0 0-.056-.131.237.237 0 0 0-.12-.082v.498c.131.033.235.066.31.097a.436.436 0 0 1 .285.435Zm-.97-.812c0 .058.018.105.053.142a.393.393 0 0 0 .153.087v-.456a.248.248 0 0 0-.15.071.216.216 0 0 0-.056.156Zm.374 1.061a.262.262 0 0 0 .156-.081.218.218 0 0 0 .058-.153.184.184 0 0 0-.056-.14.419.419 0 0 0-.158-.087v.461Zm.95-.095v-.29l.861-1.232h.43v1.201h.231v.322h-.231v.374h-.37v-.375h-.921Zm.945-1.127-.54.806h.54v-.806Zm.812.516c0-.304.055-.542.163-.714.111-.172.294-.258.549-.258.254 0 .436.086.545.258.11.172.166.41.166.714 0 .306-.055.546-.166.72-.109.173-.29.26-.546.26-.254 0-.437-.087-.547-.26-.11-.174-.164-.414-.164-.72Zm1.06 0c0-.13-.01-.239-.027-.326a.428.428 0 0 0-.1-.22c-.05-.055-.123-.083-.222-.083-.098 0-.172.028-.223.084a.458.458 0 0 0-.1.219 1.888 1.888 0 0 0-.024.326c0 .134.008.246.023.338.016.09.05.162.1.218.052.055.126.082.225.082.098 0 .172-.027.224-.082a.428.428 0 0 0 .1-.218c.015-.092.023-.204.023-.338Zm1.07.445a.296.296 0 0 0 .095.18c.051.04.119.06.203.06a.25.25 0 0 0 .237-.134c.05-.091.074-.244.074-.459a.397.397 0 0 1-.171.132.673.673 0 0 1-.54-.021.528.528 0 0 1-.214-.208.674.674 0 0 1-.079-.337c0-.195.058-.35.174-.464.116-.116.274-.174.474-.174.25 0 .425.08.527.24.104.16.156.4.156.722 0 .228-.02.415-.061.561a.601.601 0 0 1-.203.332.61.61 0 0 1-.39.113.692.692 0 0 1-.332-.073.559.559 0 0 1-.21-.198.627.627 0 0 1-.082-.271h.342Zm.28-.474a.282.282 0 0 0 .216-.084.318.318 0 0 0 .079-.227c0-.103-.028-.183-.085-.24a.292.292 0 0 0-.224-.086c-.094 0-.17.03-.226.09a.324.324 0 0 0-.082.231c0 .093.027.17.08.23.054.057.134.086.241.086Z"/>
  <path stroke="#6C5FBC" stroke-linecap="round" stroke-width=".278" d="M1.242 60.476h97.776M1.565 48.768h97.776M1.242 36.722h97.776" opacity=".09"/>
  <g clip-path="url(#a)">
    <rect width="18.405" height="8.671" x="12.964" y=".906" fill="#6C5FBC" rx="4.335"/>
    <path fill="#fff" d="M20.869 3.642v2.1h-.276V4.176l-.698 1.566H19.7L19 4.172v1.57h-.277v-2.1h.298l.777 1.736.777-1.736h.294Zm.365 1.262c0-.17.034-.319.103-.446a.75.75 0 0 1 .686-.407c.146 0 .272.032.38.094a.626.626 0 0 1 .24.237V4.08h.278v1.663h-.279v-.31a.659.659 0 0 1-.246.243.732.732 0 0 1-.376.094.754.754 0 0 1-.683-.416.954.954 0 0 1-.103-.449Zm1.408.003a.676.676 0 0 0-.076-.328.522.522 0 0 0-.206-.212.541.541 0 0 0-.282-.076.529.529 0 0 0-.486.285.677.677 0 0 0-.076.328c0 .128.026.239.076.334a.55.55 0 0 0 .204.215.559.559 0 0 0 .282.073.543.543 0 0 0 .489-.288.694.694 0 0 0 .075-.33Zm.889-1.098a.182.182 0 0 1-.134-.055.182.182 0 0 1-.054-.134c0-.052.018-.097.054-.133a.182.182 0 0 1 .134-.055c.05 0 .093.018.127.055.037.036.055.08.055.133a.182.182 0 0 1-.055.134.168.168 0 0 1-.127.055Zm.133.27v1.663h-.276V4.079h.276Zm1.281-.03a.67.67 0 0 1 .492.184c.125.122.188.298.188.528v.98h-.273v-.94c0-.166-.042-.292-.125-.38a.442.442 0 0 0-.34-.133.46.46 0 0 0-.349.137c-.084.09-.127.223-.127.397v.92h-.276V4.079h.276v.236a.55.55 0 0 1 .222-.197c.095-.046.199-.07.312-.07Z"/>
    <path fill="#828282" d="m40.336 4.475-.657 2.267h-.331l-.527-1.824-.546 1.824-.328.003-.635-2.27h.316l.494 1.922.546-1.922H39l.52 1.916.498-1.916h.318Zm1.983 1.307c0 .057-.004.116-.01.18h-1.424c.01.175.07.313.178.412.11.098.244.147.4.147.128 0 .234-.03.319-.088a.478.478 0 0 0 .182-.24h.319a.774.774 0 0 1-.287.419.87.87 0 0 1-.533.159.91.91 0 0 1-.455-.114.812.812 0 0 1-.312-.322 1.014 1.014 0 0 1-.114-.487c0-.185.037-.346.11-.485a.768.768 0 0 1 .31-.319.923.923 0 0 1 .461-.113c.17 0 .319.036.449.11.13.074.23.176.3.306a.878.878 0 0 1 .106.435Zm-.306-.061a.537.537 0 0 0-.075-.29.47.47 0 0 0-.205-.185.611.611 0 0 0-.283-.065.554.554 0 0 0-.383.143.586.586 0 0 0-.18.397h1.126Zm2.354.061c0 .057-.003.116-.01.18h-1.424c.011.175.07.313.18.412.11.098.243.147.4.147.127 0 .233-.03.318-.088a.479.479 0 0 0 .182-.24h.319a.774.774 0 0 1-.287.419.87.87 0 0 1-.533.159.91.91 0 0 1-.455-.114.812.812 0 0 1-.312-.322 1.013 1.013 0 0 1-.114-.487c0-.185.037-.346.11-.485a.769.769 0 0 1 .31-.319.923.923 0 0 1 .461-.113c.17 0 .319.036.449.11.13.074.23.176.299.306a.878.878 0 0 1 .107.435Zm-.305-.061a.538.538 0 0 0-.075-.29.471.471 0 0 0-.205-.185.61.61 0 0 0-.283-.065.554.554 0 0 0-.384.143.586.586 0 0 0-.178.397h1.125Zm1.723 1.02-.699-.786v.787h-.296V4.336h.296V5.75l.686-.79h.413l-.839.888.843.894h-.404Zm1.007-2.405v2.406h-.296V4.336h.296Zm2.072.624L47.79 7.58h-.306l.351-.858-.718-1.762h.328l.56 1.444.552-1.444h.306ZM59.989 4.492v2.25h-.296V5.064l-.748 1.678h-.208l-.751-1.681v1.68h-.296v-2.25h.318l.833 1.86.832-1.86h.316ZM61.3 6.77a.921.921 0 0 1-.455-.114.828.828 0 0 1-.319-.322 1.014 1.014 0 0 1-.114-.487c0-.183.04-.343.117-.482a.815.815 0 0 1 .325-.322.928.928 0 0 1 .459-.113c.17 0 .322.038.459.113a.8.8 0 0 1 .321.32c.08.138.12.3.12.484a.948.948 0 0 1-.123.487.837.837 0 0 1-.328.322.946.946 0 0 1-.462.114Zm0-.26a.625.625 0 0 0 .3-.075.559.559 0 0 0 .224-.224.708.708 0 0 0 .087-.364.73.73 0 0 0-.084-.365.542.542 0 0 0-.221-.22.606.606 0 0 0-.296-.076.613.613 0 0 0-.3.075.529.529 0 0 0-.214.221.753.753 0 0 0-.081.365c0 .145.026.267.078.367a.55.55 0 0 0 .214.224.609.609 0 0 0 .293.072Zm2.203-1.584c.217 0 .393.066.527.199.135.13.202.318.202.565v1.05h-.293V5.735c0-.178-.044-.314-.133-.407a.474.474 0 0 0-.364-.143.493.493 0 0 0-.374.147c-.091.097-.137.24-.137.425v.986h-.296V4.96h.296v.253a.59.59 0 0 1 .238-.21.752.752 0 0 1 .334-.076Zm1.606.277v1.05c0 .087.018.148.055.185.037.035.1.052.192.052h.218v.25h-.267c-.165 0-.288-.037-.37-.113-.083-.076-.124-.2-.124-.374v-1.05h-.231V4.96h.23V4.51h.297v.449h.465v.244h-.465Zm1.151-.868v2.406h-.296V4.336h.296Zm2.072.624-1.073 2.62h-.306l.351-.858-.718-1.762h.328l.56 1.444.552-1.444h.306ZM78.544 4.475l-.738 1.412v.855h-.296v-.855l-.74-1.412h.328l.559 1.148.56-1.148h.328Zm1.97 1.307c0 .057-.002.116-.009.18h-1.424c.01.175.07.313.179.412.11.098.244.147.4.147.128 0 .234-.03.318-.088a.479.479 0 0 0 .183-.24h.318a.774.774 0 0 1-.286.419.87.87 0 0 1-.533.159.91.91 0 0 1-.456-.114.811.811 0 0 1-.312-.322 1.013 1.013 0 0 1-.114-.487c0-.185.037-.346.111-.485a.769.769 0 0 1 .309-.319.923.923 0 0 1 .462-.113c.169 0 .318.036.448.11.13.074.23.176.3.306a.878.878 0 0 1 .107.435Zm-.305-.061a.537.537 0 0 0-.075-.29.47.47 0 0 0-.204-.185.61.61 0 0 0-.283-.065.554.554 0 0 0-.384.143.587.587 0 0 0-.179.397h1.125Zm.618.123c0-.182.037-.341.111-.478a.803.803 0 0 1 .735-.435.79.79 0 0 1 .406.1c.115.068.2.152.257.254V4.96h.3v1.782h-.3V6.41a.705.705 0 0 1-.263.26.784.784 0 0 1-.403.101.808.808 0 0 1-.732-.446 1.023 1.023 0 0 1-.11-.48Zm1.51.004a.724.724 0 0 0-.082-.352.56.56 0 0 0-.221-.227.58.58 0 0 0-.303-.082.566.566 0 0 0-.52.306.724.724 0 0 0-.081.351.75.75 0 0 0 .081.358.59.59 0 0 0 .218.23.599.599 0 0 0 .302.079.582.582 0 0 0 .523-.309.743.743 0 0 0 .082-.354Zm1.127-.599a.57.57 0 0 1 .22-.237.697.697 0 0 1 .355-.085v.306h-.078c-.332 0-.497.18-.497.54v.969h-.296V4.96h.296v.29Zm1.245-.913v2.406h-.296V4.336h.296Zm2.072.624-1.073 2.62h-.306l.351-.858-.718-1.762h.328l.56 1.444.552-1.444h.306Z"/>
  </g>
  <defs>
    <clipPath id="a">
      <rect width="76.066" height="8.671" x="12.964" y=".906" fill="#fff" rx="4.335"/>
    </clipPath>
  </defs>
</svg>
