<svg width="100" height="87" viewBox="0 0 100 87" fill="none" xmlns="http://www.w3.org/2000/svg">
<path d="M40.4284 82.1654V82.3891H38.8798V82.2287L39.8396 80.7433H40.0619L39.8234 81.1732L39.1889 82.1654H40.4284ZM40.1296 80.7433V82.8867H39.8573V80.7433H40.1296ZM41.3264 82.8867H40.8789L40.8818 82.6556H41.3264C41.4795 82.6556 41.6071 82.6237 41.7092 82.5599C41.8112 82.4951 41.8878 82.4049 41.9388 82.289C41.9908 82.1723 42.0168 82.0358 42.0168 81.8798V81.7488C42.0168 81.6261 42.0021 81.5172 41.9727 81.422C41.9432 81.3258 41.9 81.2448 41.8431 81.1791C41.7862 81.1123 41.7165 81.0618 41.6341 81.0275C41.5526 80.9931 41.4589 80.9759 41.3529 80.9759H40.8701V80.7433H41.3529C41.4933 80.7433 41.6213 80.7669 41.7371 80.814C41.8529 80.8601 41.9525 80.9274 42.036 81.0157C42.1204 81.103 42.1851 81.209 42.2303 81.3337C42.2754 81.4573 42.298 81.5967 42.298 81.7517V81.8798C42.298 82.0349 42.2754 82.1747 42.2303 82.2994C42.1851 82.423 42.1199 82.5285 42.0345 82.6159C41.9501 82.7032 41.848 82.7704 41.7283 82.8175C41.6095 82.8637 41.4756 82.8867 41.3264 82.8867ZM41.0305 80.7433V82.8867H40.7464V80.7433H41.0305Z" fill="#828282"/>
<path d="M55.4484 82.1932L55.2305 82.1373L55.338 81.07H56.4376V81.3217H55.5691L55.5043 81.9047C55.5436 81.8821 55.5931 81.861 55.653 81.8414C55.7138 81.8218 55.7835 81.8119 55.862 81.8119C55.9612 81.8119 56.05 81.8291 56.1285 81.8635C56.207 81.8968 56.2737 81.9449 56.3287 82.0077C56.3846 82.0705 56.4273 82.1461 56.4568 82.2344C56.4862 82.3228 56.5009 82.4214 56.5009 82.5303C56.5009 82.6334 56.4867 82.7281 56.4582 82.8144C56.4308 82.9008 56.3891 82.9764 56.3331 83.0411C56.2772 83.1049 56.2065 83.1545 56.1211 83.1898C56.0367 83.2252 55.9371 83.2428 55.8223 83.2428C55.7359 83.2428 55.654 83.231 55.5765 83.2075C55.4999 83.183 55.4312 83.1462 55.3704 83.0971C55.3105 83.047 55.2614 82.9852 55.2231 82.9116C55.1859 82.837 55.1623 82.7497 55.1525 82.6496H55.4116C55.4234 82.73 55.4469 82.7978 55.4822 82.8527C55.5176 82.9077 55.5637 82.9494 55.6206 82.9778C55.6785 83.0053 55.7457 83.0191 55.8223 83.0191C55.8871 83.0191 55.9445 83.0078 55.9945 82.9852C56.0446 82.9626 56.0868 82.9302 56.1211 82.888C56.1555 82.8458 56.1815 82.7948 56.1991 82.7349C56.2178 82.6751 56.2271 82.6079 56.2271 82.5333C56.2271 82.4656 56.2178 82.4027 56.1991 82.3448C56.1805 82.2869 56.1525 82.2364 56.1152 82.1932C56.0789 82.15 56.0343 82.1167 55.9813 82.0931C55.9283 82.0686 55.8674 82.0563 55.7987 82.0563C55.7075 82.0563 55.6383 82.0686 55.5912 82.0931C55.545 82.1176 55.4974 82.151 55.4484 82.1932ZM57.4504 83.2134H57.0029L57.0059 82.9823H57.4504C57.6035 82.9823 57.7311 82.9504 57.8332 82.8866C57.9352 82.8218 58.0118 82.7315 58.0628 82.6157C58.1148 82.4989 58.1409 82.3625 58.1409 82.2065V82.0754C58.1409 81.9528 58.1261 81.8438 58.0967 81.7486C58.0672 81.6525 58.0241 81.5715 57.9671 81.5057C57.9102 81.439 57.8405 81.3885 57.7581 81.3541C57.6766 81.3198 57.5829 81.3026 57.4769 81.3026H56.9941V81.07H57.4769C57.6173 81.07 57.7453 81.0936 57.8612 81.1407C57.977 81.1868 58.0766 81.254 58.16 81.3423C58.2444 81.4297 58.3092 81.5357 58.3543 81.6603C58.3995 81.784 58.422 81.9233 58.422 82.0784V82.2065C58.422 82.3615 58.3995 82.5014 58.3543 82.626C58.3092 82.7497 58.2439 82.8552 58.1585 82.9425C58.0741 83.0299 57.9721 83.0971 57.8523 83.1442C57.7336 83.1903 57.5996 83.2134 57.4504 83.2134ZM57.1545 81.07V83.2134H56.8704V81.07H57.1545Z" fill="#828282"/>
<path d="M72.2751 81.0671H72.2986V81.2982H72.2751C72.1308 81.2982 72.0101 81.3217 71.9129 81.3688C71.8158 81.415 71.7387 81.4773 71.6818 81.5558C71.6249 81.6333 71.5837 81.7207 71.5582 81.8178C71.5336 81.915 71.5214 82.0136 71.5214 82.1137V82.4287C71.5214 82.5239 71.5326 82.6083 71.5552 82.682C71.5778 82.7546 71.6087 82.8159 71.648 82.866C71.6872 82.916 71.7314 82.9538 71.7804 82.9793C71.8305 83.0048 71.8825 83.0176 71.9365 83.0176C71.9993 83.0176 72.0552 83.0058 72.1043 82.9823C72.1534 82.9577 72.1946 82.9239 72.228 82.8807C72.2623 82.8365 72.2883 82.7845 72.306 82.7246C72.3237 82.6648 72.3325 82.599 72.3325 82.5274C72.3325 82.4636 72.3246 82.4023 72.3089 82.3434C72.2932 82.2835 72.2692 82.2305 72.2368 82.1844C72.2044 82.1373 72.1637 82.1005 72.1146 82.074C72.0665 82.0465 72.0091 82.0328 71.9424 82.0328C71.8668 82.0328 71.7962 82.0514 71.7304 82.0887C71.6656 82.125 71.6121 82.1731 71.5699 82.233C71.5287 82.2918 71.5052 82.3561 71.4993 82.4258L71.355 82.4243C71.3688 82.3144 71.3943 82.2207 71.4316 82.1432C71.4698 82.0646 71.5169 82.0009 71.5729 81.9518C71.6298 81.9017 71.6931 81.8654 71.7628 81.8429C71.8334 81.8193 71.908 81.8075 71.9865 81.8075C72.0935 81.8075 72.1858 81.8276 72.2633 81.8679C72.3408 81.9081 72.4046 81.9621 72.4547 82.0298C72.5047 82.0965 72.5415 82.1721 72.5651 82.2565C72.5896 82.3399 72.6019 82.4258 72.6019 82.5141C72.6019 82.6152 72.5877 82.7099 72.5592 82.7982C72.5307 82.8866 72.488 82.9641 72.4311 83.0308C72.3752 83.0976 72.306 83.1496 72.2236 83.1869C72.1411 83.2242 72.0454 83.2428 71.9365 83.2428C71.8207 83.2428 71.7196 83.2193 71.6332 83.1722C71.5469 83.1241 71.4752 83.0603 71.4183 82.9808C71.3614 82.9013 71.3187 82.813 71.2902 82.7158C71.2618 82.6186 71.2475 82.52 71.2475 82.4199V82.2918C71.2475 82.1407 71.2628 81.9925 71.2932 81.8473C71.3236 81.702 71.3761 81.5705 71.4507 81.4527C71.5263 81.335 71.6308 81.2413 71.7643 81.1716C71.8977 81.1019 72.068 81.0671 72.2751 81.0671ZM73.5764 83.2134H73.1289L73.1318 82.9823H73.5764C73.7295 82.9823 73.8571 82.9504 73.9592 82.8866C74.0612 82.8218 74.1378 82.7315 74.1888 82.6157C74.2408 82.4989 74.2668 82.3625 74.2668 82.2065V82.0754C74.2668 81.9528 74.2521 81.8438 74.2227 81.7486C74.1932 81.6525 74.15 81.5715 74.0931 81.5057C74.0362 81.439 73.9665 81.3885 73.8841 81.3541C73.8026 81.3198 73.7089 81.3026 73.6029 81.3026H73.1201V81.07H73.6029C73.7433 81.07 73.8713 81.0936 73.9871 81.1407C74.1029 81.1868 74.2025 81.254 74.286 81.3423C74.3704 81.4297 74.4351 81.5357 74.4803 81.6603C74.5254 81.784 74.548 81.9233 74.548 82.0784V82.2065C74.548 82.3615 74.5254 82.5014 74.4803 82.626C74.4351 82.7497 74.3699 82.8552 74.2845 82.9425C74.2001 83.0299 74.098 83.0971 73.9783 83.1442C73.8595 83.1903 73.7256 83.2134 73.5764 83.2134ZM73.2805 81.07V83.2134H72.9964V81.07H73.2805Z" fill="#828282"/>
<path d="M87.5243 81.0705V81.2236L86.6366 83.2139H86.3496L87.2358 81.2942H86.0758V81.0705H87.5243ZM88.4856 83.2139H88.0381L88.041 82.9827H88.4856C88.6387 82.9827 88.7663 82.9509 88.8683 82.8871C88.9704 82.8223 89.047 82.732 89.098 82.6162C89.15 82.4994 89.176 82.363 89.176 82.2069V82.0759C89.176 81.9533 89.1613 81.8443 89.1318 81.7491C89.1024 81.6529 89.0592 81.572 89.0023 81.5062C88.9454 81.4395 88.8757 81.389 88.7933 81.3546C88.7118 81.3203 88.6181 81.3031 88.5121 81.3031H88.0292V81.0705H88.5121C88.6524 81.0705 88.7805 81.094 88.8963 81.1411C89.0121 81.1873 89.1117 81.2545 89.1951 81.3428C89.2795 81.4302 89.3443 81.5362 89.3895 81.6608C89.4346 81.7845 89.4572 81.9238 89.4572 82.0789V82.2069C89.4572 82.362 89.4346 82.5019 89.3895 82.6265C89.3443 82.7502 89.2791 82.8557 89.1937 82.943C89.1093 83.0303 89.0072 83.0976 88.8875 83.1447C88.7687 83.1908 88.6348 83.2139 88.4856 83.2139ZM88.1897 81.0705V83.2139H87.9056V81.0705H88.1897Z" fill="#828282"/>
<rect x="14.9697" y="77.6265" width="13.184" height="9.33205" rx="4.66602" fill="#E7E7E7" fill-opacity="0.92"/>
<path d="M20.9523 83.0247V83.356H19.4861V83.0733L20.1794 82.3299C20.2491 82.2524 20.3041 82.1842 20.3443 82.1253C20.3846 82.0654 20.4135 82.0119 20.4312 81.9648C20.4498 81.9167 20.4591 81.8711 20.4591 81.8279C20.4591 81.7631 20.4483 81.7077 20.4268 81.6616C20.4052 81.6145 20.3733 81.5781 20.3311 81.5526C20.2898 81.5271 20.2388 81.5144 20.178 81.5144C20.1132 81.5144 20.0573 81.5301 20.0101 81.5615C19.964 81.5929 19.9287 81.6365 19.9042 81.6925C19.8806 81.7484 19.8688 81.8117 19.8688 81.8824H19.4434C19.4434 81.7548 19.4738 81.638 19.5347 81.532C19.5955 81.425 19.6814 81.3402 19.7923 81.2773C19.9032 81.2136 20.0347 81.1817 20.1868 81.1817C20.337 81.1817 20.4636 81.2062 20.5666 81.2553C20.6706 81.3034 20.7491 81.373 20.8021 81.4643C20.8561 81.5546 20.8831 81.6625 20.8831 81.7882C20.8831 81.8588 20.8718 81.928 20.8492 81.9957C20.8267 82.0625 20.7943 82.1292 20.7521 82.1959C20.7109 82.2617 20.6608 82.3284 20.6019 82.3961C20.543 82.4639 20.4778 82.534 20.4061 82.6067L20.0337 83.0247H20.9523ZM21.9195 83.356H21.4528L21.4558 83.0115H21.9195C22.0353 83.0115 22.1329 82.9855 22.2124 82.9335C22.2919 82.8805 22.3518 82.8034 22.392 82.7023C22.4332 82.6013 22.4538 82.4791 22.4538 82.3358V82.2313C22.4538 82.1214 22.4421 82.0247 22.4185 81.9413C22.3959 81.8578 22.3621 81.7877 22.3169 81.7308C22.2718 81.6738 22.2163 81.6311 22.1506 81.6027C22.0848 81.5732 22.0093 81.5585 21.9239 81.5585H21.444V81.2126H21.9239C22.0672 81.2126 22.1982 81.2371 22.3169 81.2862C22.4367 81.3343 22.5402 81.4035 22.6275 81.4937C22.7149 81.584 22.7821 81.692 22.8292 81.8176C22.8773 81.9422 22.9014 82.0811 22.9014 82.2342V82.3358C22.9014 82.4879 22.8773 82.6268 22.8292 82.7524C22.7821 82.878 22.7149 82.986 22.6275 83.0763C22.5412 83.1656 22.4376 83.2348 22.3169 83.2838C22.1972 83.3319 22.0647 83.356 21.9195 83.356ZM21.7031 81.2126V83.356H21.2614V81.2126H21.7031Z" fill="#151515"/>
<path d="M1.12402 63.2777C6.37885 63.2777 6.88738 70.1194 12.4812 70.1194C18.0751 70.1194 16.719 50.6745 21.9738 50.6745C27.2286 50.6745 24.347 34.2903 31.6359 34.2903C38.9249 34.2903 35.5347 50.6745 42.1456 50.6745C48.7565 50.6745 47.7394 31.5485 51.9772 31.5485C56.2149 31.5485 55.0284 42.9325 60.1137 42.9325C65.199 42.9325 62.8259 24.1558 68.2502 24.1558C73.6745 24.1558 73.166 32.3521 78.0818 32.3521C82.9976 32.3521 83.5061 41.8522 90.2866 41.8522C97.067 41.8522 92.8292 52.4411 99.2706 52.4411" stroke="#6C5FBC" stroke-width="0.943586" stroke-linecap="round" stroke-linejoin="round"/>
<path d="M84.4361 35.8752C84.4361 36.8762 83.681 37.6313 82.817 37.6313C81.953 37.6313 81.1978 36.8762 81.1978 35.8752C81.1978 34.8742 81.953 34.1192 82.817 34.1192C83.681 34.1192 84.4361 34.8742 84.4361 35.8752Z" fill="#C5BFED" stroke="#6C5FBC" stroke-width="1.05387"/>
<rect x="82.5244" y="25.4814" width="12.1753" height="5.65282" rx="2.82641" fill="#6C5FBC"/>
<path d="M86.6267 28.8191C86.6267 28.9104 86.603 28.9965 86.5555 29.0773C86.5099 29.1563 86.4414 29.2222 86.35 29.2749C86.2605 29.3258 86.1542 29.3557 86.0312 29.3644V29.5778H85.8626V29.3618C85.687 29.346 85.5456 29.2933 85.4384 29.2037C85.3313 29.1124 85.276 28.9894 85.2724 28.8349H85.6677C85.6782 28.9613 85.7432 29.0377 85.8626 29.0641V28.5609C85.7362 28.5293 85.6343 28.4976 85.557 28.466C85.4797 28.4344 85.413 28.3835 85.3568 28.3132C85.3006 28.243 85.2724 28.1472 85.2724 28.026C85.2724 27.8732 85.3269 27.7485 85.4358 27.6519C85.5465 27.5553 85.6887 27.5 85.8626 27.4859V27.2725H86.0312V27.4859C86.1999 27.5 86.3342 27.5509 86.4343 27.6387C86.5362 27.7266 86.5933 27.8477 86.6056 28.0023H86.2078C86.2025 27.9514 86.184 27.9075 86.1524 27.8706C86.1226 27.8319 86.0822 27.8047 86.0312 27.7889V28.2869C86.163 28.3202 86.2666 28.3527 86.3421 28.3843C86.4194 28.4142 86.4862 28.4643 86.5424 28.5345C86.5986 28.603 86.6267 28.6979 86.6267 28.8191ZM85.6571 28.0076C85.6571 28.0655 85.6747 28.113 85.7098 28.1499C85.7449 28.185 85.7959 28.214 85.8626 28.2368V27.781C85.7994 27.7898 85.7493 27.8135 85.7124 27.8521C85.6756 27.8908 85.6571 27.9426 85.6571 28.0076ZM86.0312 29.0694C86.098 29.0571 86.1498 29.0298 86.1867 28.9877C86.2253 28.9455 86.2446 28.8946 86.2446 28.8349C86.2446 28.7769 86.2262 28.7304 86.1893 28.6952C86.1524 28.6601 86.0997 28.6311 86.0312 28.6083V29.0694ZM86.9805 28.9745V28.6847L87.842 27.4517H88.2715V28.6531H88.5033V28.9745H88.2715V29.3486H87.9026V28.9745H86.9805ZM87.9263 27.8469L87.3862 28.6531H87.9263V27.8469ZM88.7382 28.3633C88.7382 28.0594 88.7926 27.8214 88.9015 27.6493C89.0122 27.4771 89.1948 27.3911 89.4495 27.3911C89.7042 27.3911 89.886 27.4771 89.9949 27.6493C90.1056 27.8214 90.1609 28.0594 90.1609 28.3633C90.1609 28.6689 90.1056 28.9086 89.9949 29.0825C89.886 29.2564 89.7042 29.3434 89.4495 29.3434C89.1948 29.3434 89.0122 29.2564 88.9015 29.0825C88.7926 28.9086 88.7382 28.6689 88.7382 28.3633ZM89.7973 28.3633C89.7973 28.2333 89.7885 28.1244 89.771 28.0366C89.7552 27.947 89.7218 27.8741 89.6708 27.8179C89.6217 27.7617 89.5479 27.7336 89.4495 27.7336C89.3512 27.7336 89.2765 27.7617 89.2256 27.8179C89.1764 27.8741 89.143 27.947 89.1255 28.0366C89.1097 28.1244 89.1018 28.2333 89.1018 28.3633C89.1018 28.4968 89.1097 28.6092 89.1255 28.7005C89.1413 28.7901 89.1746 28.863 89.2256 28.9192C89.2765 28.9736 89.3512 29.0009 89.4495 29.0009C89.5479 29.0009 89.6225 28.9736 89.6735 28.9192C89.7244 28.863 89.7578 28.7901 89.7736 28.7005C89.7894 28.6092 89.7973 28.4968 89.7973 28.3633ZM90.8683 28.8085C90.8823 28.8858 90.9139 28.9455 90.9631 28.9877C91.014 29.0281 91.0817 29.0483 91.166 29.0483C91.2749 29.0483 91.3539 29.0035 91.4031 28.9139C91.4523 28.8226 91.4769 28.6698 91.4769 28.4555C91.4365 28.5117 91.3794 28.5556 91.3056 28.5872C91.2336 28.6188 91.1554 28.6346 91.0711 28.6346C90.9587 28.6346 90.8568 28.6118 90.7655 28.5661C90.6759 28.5187 90.6048 28.4493 90.5521 28.358C90.4994 28.2649 90.4731 28.1525 90.4731 28.0208C90.4731 27.8258 90.531 27.6712 90.6469 27.5571C90.7629 27.4411 90.921 27.3832 91.1212 27.3832C91.3706 27.3832 91.5462 27.4631 91.6481 27.6229C91.7518 27.7828 91.8036 28.0234 91.8036 28.3448C91.8036 28.5732 91.7834 28.7602 91.743 28.906C91.7043 29.0518 91.6367 29.1624 91.5401 29.238C91.4453 29.3135 91.3153 29.3513 91.1502 29.3513C91.0202 29.3513 90.9095 29.3267 90.8182 29.2775C90.7269 29.2266 90.6566 29.1607 90.6074 29.0799C90.56 28.9973 90.5328 28.9069 90.5258 28.8085H90.8683ZM91.1475 28.3343C91.2389 28.3343 91.3109 28.3062 91.3636 28.25C91.4163 28.1938 91.4426 28.1182 91.4426 28.0234C91.4426 27.9198 91.4145 27.8398 91.3583 27.7836C91.3039 27.7257 91.2292 27.6967 91.1344 27.6967C91.0395 27.6967 90.964 27.7266 90.9078 27.7863C90.8533 27.8442 90.8261 27.9215 90.8261 28.0181C90.8261 28.1112 90.8525 28.1876 90.9051 28.2473C90.9596 28.3053 91.0404 28.3343 91.1475 28.3343Z" fill="white"/>
<line opacity="0.09" x1="1.24242" y1="60.4763" x2="99.0183" y2="60.4763" stroke="#6C5FBC" stroke-width="0.277816" stroke-linecap="round"/>
<line opacity="0.09" x1="1.56469" y1="48.7683" x2="99.3406" y2="48.7683" stroke="#6C5FBC" stroke-width="0.277816" stroke-linecap="round"/>
<line opacity="0.09" x1="1.24242" y1="36.7219" x2="99.0183" y2="36.7219" stroke="#6C5FBC" stroke-width="0.277816" stroke-linecap="round"/>
<g clip-path="url(#clip0_1_5514)">
<rect x="12.9639" y="0.90625" width="18.4049" height="8.67078" rx="4.33539" fill="#6C5FBC"/>
<path d="M20.8689 3.64164V5.7417H20.5927V4.17576L19.8947 5.7417H19.7005L18.9995 4.17272V5.7417H18.7233V3.64164H19.0207L19.7976 5.37753L20.5745 3.64164H20.8689ZM21.234 4.9041C21.234 4.73415 21.2684 4.58545 21.3372 4.45799C21.406 4.32851 21.5001 4.22836 21.6195 4.15755C21.7409 4.08674 21.8754 4.05133 22.0231 4.05133C22.1688 4.05133 22.2952 4.08269 22.4024 4.14541C22.5097 4.20813 22.5896 4.28703 22.6422 4.38212V4.07864H22.9214V5.7417H22.6422V5.43215C22.5876 5.52927 22.5056 5.61019 22.3964 5.67493C22.2891 5.73765 22.1637 5.76901 22.0201 5.76901C21.8724 5.76901 21.7388 5.73259 21.6195 5.65976C21.5001 5.58693 21.406 5.48476 21.3372 5.35325C21.2684 5.22174 21.234 5.07203 21.234 4.9041ZM22.6422 4.90714C22.6422 4.7817 22.6169 4.67245 22.5663 4.57938C22.5157 4.48632 22.4469 4.4155 22.3599 4.36695C22.275 4.31637 22.1809 4.29108 22.0777 4.29108C21.9745 4.29108 21.8805 4.31536 21.7955 4.36391C21.7105 4.41247 21.6427 4.48328 21.5921 4.57635C21.5416 4.66941 21.5163 4.77866 21.5163 4.9041C21.5163 5.03156 21.5416 5.14284 21.5921 5.23793C21.6427 5.33099 21.7105 5.40282 21.7955 5.4534C21.8805 5.50195 21.9745 5.52623 22.0777 5.52623C22.1809 5.52623 22.275 5.50195 22.3599 5.4534C22.4469 5.40282 22.5157 5.33099 22.5663 5.23793C22.6169 5.14284 22.6422 5.03257 22.6422 4.90714ZM23.5307 3.80855C23.4781 3.80855 23.4336 3.79034 23.3972 3.75392C23.3608 3.71751 23.3425 3.673 23.3425 3.62039C23.3425 3.56779 23.3608 3.52328 23.3972 3.48686C23.4336 3.45045 23.4781 3.43224 23.5307 3.43224C23.5813 3.43224 23.6238 3.45045 23.6582 3.48686C23.6946 3.52328 23.7128 3.56779 23.7128 3.62039C23.7128 3.673 23.6946 3.71751 23.6582 3.75392C23.6238 3.79034 23.5813 3.80855 23.5307 3.80855ZM23.6642 4.07864V5.7417H23.3881V4.07864H23.6642ZM24.9452 4.0483C25.1475 4.0483 25.3114 4.11 25.4368 4.23342C25.5623 4.35481 25.625 4.53083 25.625 4.76147V5.7417H25.3519V4.80092C25.3519 4.63502 25.3104 4.50857 25.2274 4.42157C25.1445 4.33255 25.0312 4.28804 24.8875 4.28804C24.7419 4.28804 24.6255 4.33356 24.5385 4.42461C24.4536 4.51565 24.4111 4.64817 24.4111 4.82216V5.7417H24.1349V4.07864H24.4111V4.31536C24.4657 4.23038 24.5395 4.16463 24.6326 4.1181C24.7277 4.07156 24.8319 4.0483 24.9452 4.0483Z" fill="white"/>
<path d="M40.3364 4.47538L39.6795 6.7417H39.3479L38.8211 4.91758L38.2749 6.7417L37.9465 6.74495L37.3124 4.47538H37.6278L38.1221 6.39704L38.6683 4.47538H39L39.5202 6.39053L40.0177 4.47538H40.3364ZM42.3185 5.78249C42.3185 5.83885 42.3152 5.89847 42.3087 5.96133H40.8845C40.8954 6.13691 40.955 6.27456 41.0634 6.37428C41.1739 6.47182 41.3072 6.52059 41.4633 6.52059C41.5912 6.52059 41.6974 6.49133 41.7819 6.4328C41.8687 6.37211 41.9294 6.2919 41.964 6.19219H42.2827C42.235 6.36344 42.1396 6.50325 41.9965 6.61164C41.8535 6.71785 41.6757 6.77096 41.4633 6.77096C41.2942 6.77096 41.1425 6.73303 41.0081 6.65716C40.8759 6.58129 40.7718 6.47399 40.6959 6.33526C40.6201 6.19436 40.5821 6.03178 40.5821 5.84753C40.5821 5.66327 40.619 5.50178 40.6927 5.36305C40.7664 5.22431 40.8693 5.1181 41.0016 5.04439C41.136 4.96853 41.2899 4.93059 41.4633 4.93059C41.6324 4.93059 41.7819 4.96744 41.912 5.04114C42.0421 5.11484 42.1418 5.21673 42.2112 5.34679C42.2827 5.47468 42.3185 5.61992 42.3185 5.78249ZM42.0128 5.72072C42.0128 5.608 41.9879 5.51153 41.938 5.43133C41.8882 5.34896 41.8199 5.28718 41.7332 5.24599C41.6486 5.20264 41.5543 5.18096 41.4503 5.18096C41.3007 5.18096 41.1728 5.22865 41.0666 5.32403C40.9626 5.41941 40.9029 5.55164 40.8878 5.72072H42.0128ZM44.3673 5.78249C44.3673 5.83885 44.3641 5.89847 44.3575 5.96133H42.9334C42.9442 6.13691 43.0038 6.27456 43.1122 6.37428C43.2228 6.47182 43.3561 6.52059 43.5121 6.52059C43.64 6.52059 43.7463 6.49133 43.8308 6.4328C43.9175 6.37211 43.9782 6.2919 44.0129 6.19219H44.3315C44.2838 6.36344 44.1885 6.50325 44.0454 6.61164C43.9023 6.71785 43.7246 6.77096 43.5121 6.77096C43.3431 6.77096 43.1913 6.73303 43.0569 6.65716C42.9247 6.58129 42.8207 6.47399 42.7448 6.33526C42.6689 6.19436 42.631 6.03178 42.631 5.84753C42.631 5.66327 42.6678 5.50178 42.7415 5.36305C42.8152 5.22431 42.9182 5.1181 43.0504 5.04439C43.1848 4.96853 43.3387 4.93059 43.5121 4.93059C43.6812 4.93059 43.8308 4.96744 43.9609 5.04114C44.0909 5.11484 44.1906 5.21673 44.26 5.34679C44.3315 5.47468 44.3673 5.61992 44.3673 5.78249ZM44.0617 5.72072C44.0617 5.608 44.0367 5.51153 43.9869 5.43133C43.937 5.34896 43.8687 5.28718 43.782 5.24599C43.6975 5.20264 43.6032 5.18096 43.4991 5.18096C43.3496 5.18096 43.2217 5.22865 43.1155 5.32403C43.0114 5.41941 42.9518 5.55164 42.9366 5.72072H44.0617ZM45.7854 6.7417L45.0863 5.95483V6.7417H44.7904V4.33556H45.0863V5.74998L45.7724 4.95985H46.1853L45.3464 5.84753L46.1885 6.7417H45.7854ZM46.7922 4.33556V6.7417H46.4963V4.33556H46.7922ZM48.8637 4.95985L47.7907 7.5806H47.4851L47.8362 6.72219L47.1176 4.95985H47.4461L48.0053 6.40354L48.5581 4.95985H48.8637Z" fill="#828282"/>
<path d="M59.9886 4.49163V6.7417H59.6927V5.0639L58.9448 6.7417H58.7367L57.9856 5.06065V6.7417H57.6897V4.49163H58.0084L58.8408 6.35151L59.6732 4.49163H59.9886ZM61.3 6.77096C61.1331 6.77096 60.9813 6.73303 60.8448 6.65716C60.7104 6.58129 60.6042 6.47399 60.5261 6.33526C60.4503 6.19436 60.4123 6.03178 60.4123 5.84753C60.4123 5.66544 60.4513 5.50503 60.5294 5.3663C60.6096 5.2254 60.718 5.1181 60.8545 5.04439C60.9911 4.96853 61.1439 4.93059 61.313 4.93059C61.4821 4.93059 61.6349 4.96853 61.7715 5.04439C61.908 5.1181 62.0153 5.22431 62.0934 5.36305C62.1736 5.50178 62.2137 5.66327 62.2137 5.84753C62.2137 6.03178 62.1725 6.19436 62.0901 6.33526C62.0099 6.47399 61.9004 6.58129 61.7617 6.65716C61.623 6.73303 61.4691 6.77096 61.3 6.77096ZM61.3 6.51084C61.4062 6.51084 61.5059 6.48591 61.5991 6.43605C61.6923 6.3862 61.7671 6.31141 61.8235 6.2117C61.882 6.11198 61.9113 5.99059 61.9113 5.84753C61.9113 5.70446 61.8831 5.58307 61.8267 5.48335C61.7704 5.38364 61.6967 5.30994 61.6056 5.26225C61.5146 5.21239 61.416 5.18746 61.3098 5.18746C61.2014 5.18746 61.1017 5.21239 61.0106 5.26225C60.9217 5.30994 60.8502 5.38364 60.796 5.48335C60.7418 5.58307 60.7147 5.70446 60.7147 5.84753C60.7147 5.99276 60.7407 6.11524 60.7928 6.21495C60.8469 6.31466 60.9185 6.38945 61.0074 6.43931C61.0962 6.487 61.1938 6.51084 61.3 6.51084ZM63.5034 4.92734C63.7202 4.92734 63.8958 4.99345 64.0301 5.12568C64.1645 5.25575 64.2317 5.44433 64.2317 5.69145V6.7417H63.9391V5.73372C63.9391 5.55597 63.8947 5.42049 63.8058 5.32728C63.7169 5.2319 63.5955 5.18421 63.4416 5.18421C63.2855 5.18421 63.1609 5.23298 63.0677 5.33053C62.9766 5.42808 62.9311 5.57006 62.9311 5.75648V6.7417H62.6352V4.95985H62.9311V5.21347C62.9897 5.12243 63.0688 5.05198 63.1685 5.00212C63.2704 4.95227 63.382 4.92734 63.5034 4.92734ZM65.1085 5.20372V6.25397C65.1085 6.34068 65.1269 6.40246 65.1638 6.43931C65.2006 6.47399 65.2646 6.49133 65.3556 6.49133H65.5735V6.7417H65.3069C65.1421 6.7417 65.0186 6.70376 64.9362 6.6279C64.8538 6.55203 64.8126 6.42738 64.8126 6.25397V5.20372H64.5818V4.95985H64.8126V4.51114H65.1085V4.95985H65.5735V5.20372H65.1085ZM66.2604 4.33556V6.7417H65.9645V4.33556H66.2604ZM68.3319 4.95985L67.2589 7.5806H66.9533L67.3044 6.72219L66.5859 4.95985H66.9143L67.4735 6.40354L68.0263 4.95985H68.3319Z" fill="#828282"/>
<path d="M78.5445 4.47538L77.8064 5.88654V6.7417H77.5105V5.88654L76.7691 4.47538H77.0976L77.6568 5.62317L78.2161 4.47538H78.5445ZM80.5149 5.78249C80.5149 5.83885 80.5116 5.89847 80.5051 5.96133H79.0809C79.0918 6.13691 79.1514 6.27456 79.2598 6.37428C79.3703 6.47182 79.5036 6.52059 79.6597 6.52059C79.7876 6.52059 79.8938 6.49133 79.9784 6.4328C80.0651 6.37211 80.1258 6.2919 80.1605 6.19219H80.4791C80.4314 6.36344 80.336 6.50325 80.193 6.61164C80.0499 6.71785 79.8721 6.77096 79.6597 6.77096C79.4906 6.77096 79.3389 6.73303 79.2045 6.65716C79.0723 6.58129 78.9682 6.47399 78.8924 6.33526C78.8165 6.19436 78.7785 6.03178 78.7785 5.84753C78.7785 5.66327 78.8154 5.50178 78.8891 5.36305C78.9628 5.22431 79.0658 5.1181 79.198 5.04439C79.3324 4.96853 79.4863 4.93059 79.6597 4.93059C79.8288 4.93059 79.9784 4.96744 80.1084 5.04114C80.2385 5.11484 80.3382 5.21673 80.4076 5.34679C80.4791 5.47468 80.5149 5.61992 80.5149 5.78249ZM80.2092 5.72072C80.2092 5.608 80.1843 5.51153 80.1344 5.43133C80.0846 5.34896 80.0163 5.28718 79.9296 5.24599C79.8451 5.20264 79.7508 5.18096 79.6467 5.18096C79.4971 5.18096 79.3692 5.22865 79.263 5.32403C79.159 5.41941 79.0994 5.55164 79.0842 5.72072H80.2092ZM80.8274 5.84427C80.8274 5.66219 80.8643 5.50286 80.938 5.3663C81.0117 5.22756 81.1125 5.12026 81.2403 5.04439C81.3704 4.96853 81.5146 4.93059 81.6728 4.93059C81.8289 4.93059 81.9644 4.96419 82.0792 5.03139C82.1941 5.09859 82.2798 5.18313 82.3361 5.28501V4.95985H82.6353V6.7417H82.3361V6.41004C82.2776 6.51409 82.1898 6.6008 82.0727 6.67017C81.9579 6.73736 81.8235 6.77096 81.6695 6.77096C81.5113 6.77096 81.3682 6.73194 81.2403 6.65391C81.1125 6.57587 81.0117 6.4664 80.938 6.3255C80.8643 6.1846 80.8274 6.02419 80.8274 5.84427ZM82.3361 5.84753C82.3361 5.71313 82.309 5.59607 82.2548 5.49636C82.2006 5.39665 82.1269 5.32078 82.0337 5.26875C81.9427 5.21456 81.8419 5.18746 81.7313 5.18746C81.6208 5.18746 81.52 5.21347 81.4289 5.2655C81.3379 5.31752 81.2653 5.39339 81.2111 5.49311C81.1569 5.59282 81.1298 5.70988 81.1298 5.84427C81.1298 5.98084 81.1569 6.10006 81.2111 6.20194C81.2653 6.30166 81.3379 6.37861 81.4289 6.4328C81.52 6.48483 81.6208 6.51084 81.7313 6.51084C81.8419 6.51084 81.9427 6.48483 82.0337 6.4328C82.1269 6.37861 82.2006 6.30166 82.2548 6.20194C82.309 6.10006 82.3361 5.98192 82.3361 5.84753ZM83.4637 5.24924C83.5157 5.14736 83.5894 5.06824 83.6848 5.01188C83.7823 4.95552 83.9005 4.92734 84.0392 4.92734V5.23298H83.9612C83.6295 5.23298 83.4637 5.4129 83.4637 5.77274V6.7417H83.1678V4.95985H83.4637V5.24924ZM84.7092 4.33556V6.7417H84.4133V4.33556H84.7092ZM86.7807 4.95985L85.7077 7.5806H85.4021L85.7532 6.72219L85.0346 4.95985H85.363L85.9223 6.40354L86.4751 4.95985H86.7807Z" fill="#828282"/>
</g>
<defs>
<clipPath id="clip0_1_5514">
<rect x="12.9639" y="0.90625" width="76.0656" height="8.67078" rx="4.33539" fill="white"/>
</clipPath>
</defs>
</svg>
