<svg xmlns="http://www.w3.org/2000/svg" width="23" height="30" fill="none">
  <path fill="rgba(255,255,255,0.362)" d="m21.064 27.958-2.63-3.62 3.62-2.631a1.03 1.03 0 0 0 .228-1.433 1.03 1.03 0 0 0-1.433-.227l-3.622 2.63-2.63-3.621a1.03 1.03 0 0 0-1.433-.227 1.03 1.03 0 0 0-.227 1.433l2.63 3.621-3.62 2.63a1.03 1.03 0 0 0-.228 1.433 1.03 1.03 0 0 0 1.433.228l3.621-2.631 2.63 3.621a1.03 1.03 0 0 0 1.434.227c.463-.33.564-.969.227-1.433ZM4.985 4.874 3.631 3.011l1.864-1.354a.53.53 0 0 0 .117-.738.53.53 0 0 0-.738-.116L3.011 2.156 1.657.293A.53.53 0 0 0 .92.176a.53.53 0 0 0-.117.737l1.353 1.864L.293 4.13a.53.53 0 0 0-.117.737.53.53 0 0 0 .737.117l1.864-1.354 1.354 1.864a.53.53 0 0 0 .737.117.524.524 0 0 0 .117-.738Z"/>
</svg>
