<svg xmlns="http://www.w3.org/2000/svg" width="67" height="80" fill="none">
  <path fill="rgba(255,255,255,0.244)" d="m64.686 9.471-2.63-3.62 3.621-2.631a1.03 1.03 0 0 0 .227-1.433 1.03 1.03 0 0 0-1.433-.227l-3.62 2.63L58.22.57a1.03 1.03 0 0 0-1.433-.227 1.03 1.03 0 0 0-.227 1.433l2.63 3.62-3.621 2.631a1.03 1.03 0 0 0-.227 1.433 1.03 1.03 0 0 0 1.433.228l3.62-2.631 2.631 3.621a1.03 1.03 0 0 0 1.433.227c.463-.33.564-.969.227-1.433Z" />
  <path stroke="rgba(255,255,255,0.21)" d="M60.052 39.681H20.689v39.363h39.363V39.681Z" />
  <path fill="rgba(248,248,248,0.228)" d="M0 19h40.362v40.363H0V19Z" />
</svg>
