<svg aria-hidden="true" style="position: absolute; width: 0; height: 0; overflow: hidden;" version="1.1" xmlns="http://www.w3.org/2000/svg" xmlns:xlink="http://www.w3.org/1999/xlink">
<defs>
<symbol id="icon-trustpilot" viewBox="0 0 127 32">
<path fill="#000" style="fill: var(--color1, #000)" d="M33.372 11.046h12.845v2.391h-5.058v13.48h-2.772v-13.48h-5.036l0.021-2.391zM45.667 15.427h2.37v2.222h0.042c0.085-0.317 0.233-0.614 0.444-0.91s0.466-0.571 0.783-0.804c0.296-0.254 0.635-0.444 1.016-0.593 0.36-0.148 0.741-0.233 1.122-0.233 0.296 0 0.508 0.021 0.614 0.021 0.106 0.021 0.233 0.042 0.339 0.042v2.434c-0.169-0.042-0.36-0.063-0.55-0.085s-0.36-0.042-0.55-0.042c-0.423 0-0.825 0.085-1.206 0.254s-0.698 0.423-0.995 0.741c-0.275 0.339-0.508 0.741-0.677 1.227s-0.254 1.058-0.254 1.693v5.46h-2.539l0.042-11.427zM64.035 26.917h-2.497v-1.608h-0.042c-0.317 0.593-0.783 1.037-1.397 1.397s-1.249 0.529-1.883 0.529c-1.502 0-2.603-0.36-3.28-1.122-0.677-0.741-1.016-1.883-1.016-3.386v-7.301h2.539v7.047c0 1.016 0.19 1.735 0.593 2.137 0.381 0.423 0.931 0.635 1.629 0.635 0.529 0 0.973-0.085 1.333-0.254s0.656-0.381 0.868-0.656c0.233-0.275 0.381-0.614 0.487-0.995s0.148-0.804 0.148-1.249v-6.666h2.539v11.491h-0.021zM68.352 23.235c0.085 0.741 0.36 1.249 0.846 1.566 0.487 0.296 1.079 0.444 1.756 0.444 0.233 0 0.508-0.021 0.804-0.063s0.593-0.106 0.846-0.212c0.275-0.106 0.487-0.254 0.656-0.466s0.254-0.466 0.233-0.783c-0.021-0.317-0.127-0.593-0.36-0.804s-0.508-0.36-0.846-0.508c-0.339-0.127-0.741-0.233-1.185-0.317s-0.889-0.19-1.354-0.296c-0.466-0.106-0.931-0.233-1.375-0.381s-0.825-0.339-1.185-0.614c-0.339-0.254-0.635-0.571-0.825-0.973-0.212-0.402-0.317-0.868-0.317-1.46 0-0.635 0.148-1.143 0.466-1.566 0.296-0.423 0.698-0.762 1.164-1.016s0.995-0.444 1.566-0.55c0.571-0.106 1.122-0.148 1.629-0.148 0.593 0 1.164 0.063 1.693 0.19s1.037 0.317 1.46 0.614c0.444 0.275 0.804 0.656 1.079 1.1 0.296 0.444 0.466 0.995 0.55 1.629h-2.645c-0.127-0.614-0.402-1.016-0.825-1.227-0.444-0.212-0.931-0.317-1.502-0.317-0.169 0-0.402 0.021-0.635 0.042-0.254 0.042-0.466 0.085-0.698 0.169-0.212 0.085-0.402 0.212-0.55 0.36s-0.233 0.36-0.233 0.614c0 0.317 0.106 0.55 0.317 0.741s0.487 0.339 0.846 0.487c0.339 0.127 0.741 0.233 1.185 0.317s0.91 0.19 1.375 0.296c0.466 0.106 0.91 0.233 1.354 0.381s0.846 0.339 1.185 0.614c0.339 0.254 0.635 0.571 0.846 0.952s0.317 0.868 0.317 1.418c0 0.677-0.148 1.249-0.466 1.735-0.317 0.466-0.719 0.868-1.206 1.164s-1.058 0.508-1.651 0.656c-0.614 0.127-1.206 0.212-1.799 0.212-0.719 0-1.397-0.085-2.010-0.254s-1.164-0.423-1.608-0.741c-0.444-0.339-0.804-0.741-1.058-1.249-0.254-0.487-0.402-1.079-0.423-1.778h2.561v0.021h0.021zM76.71 15.427h1.926v-3.47h2.539v3.449h2.285v1.883h-2.285v6.137c0 0.275 0.021 0.487 0.042 0.698 0.021 0.19 0.085 0.36 0.148 0.487 0.085 0.127 0.212 0.233 0.36 0.296 0.169 0.063 0.381 0.106 0.677 0.106 0.169 0 0.36 0 0.529-0.021s0.36-0.042 0.529-0.085v1.968c-0.275 0.042-0.55 0.063-0.825 0.085-0.275 0.042-0.529 0.042-0.825 0.042-0.677 0-1.206-0.063-1.608-0.19s-0.719-0.317-0.952-0.55c-0.233-0.254-0.381-0.55-0.466-0.91s-0.127-0.804-0.148-1.27v-6.772h-1.926v-1.883zM85.238 15.427h2.391v1.566h0.042c0.36-0.677 0.846-1.143 1.481-1.439s1.312-0.444 2.074-0.444c0.91 0 1.693 0.148 2.37 0.487 0.677 0.317 1.227 0.741 1.672 1.312 0.444 0.55 0.783 1.206 0.995 1.947s0.339 1.545 0.339 2.37c0 0.783-0.106 1.524-0.296 2.243-0.212 0.719-0.508 1.375-0.91 1.926s-0.91 0.995-1.545 1.333c-0.635 0.339-1.354 0.508-2.201 0.508-0.36 0-0.741-0.042-1.1-0.106s-0.719-0.169-1.058-0.317c-0.339-0.148-0.656-0.339-0.931-0.571-0.296-0.233-0.529-0.508-0.719-0.804h-0.042v5.735h-2.539v-15.744h-0.021zM94.105 21.183c0-0.508-0.063-1.016-0.212-1.502-0.127-0.487-0.339-0.91-0.614-1.291s-0.614-0.677-0.995-0.91c-0.402-0.233-0.868-0.339-1.375-0.339-1.058 0-1.862 0.36-2.412 1.1-0.529 0.741-0.804 1.735-0.804 2.963 0 0.593 0.063 1.122 0.212 1.608s0.339 0.91 0.635 1.27c0.275 0.36 0.614 0.635 1.016 0.846s0.846 0.317 1.375 0.317c0.593 0 1.058-0.127 1.46-0.36s0.719-0.55 0.995-0.91c0.254-0.381 0.444-0.804 0.55-1.291 0.106-0.508 0.169-0.995 0.169-1.502zM98.57 11.046h2.539v2.391h-2.539v-2.391zM98.57 15.427h2.539v11.491h-2.539v-11.491zM103.373 11.046h2.539v15.871h-2.539v-15.871zM113.658 27.235c-0.909 0-1.735-0.148-2.455-0.466s-1.312-0.719-1.82-1.249c-0.486-0.529-0.867-1.185-1.121-1.926s-0.403-1.566-0.403-2.434c0-0.868 0.127-1.672 0.403-2.412 0.254-0.741 0.635-1.375 1.121-1.926 0.487-0.529 1.1-0.952 1.82-1.249s1.545-0.466 2.455-0.466c0.91 0 1.735 0.148 2.455 0.466 0.719 0.296 1.312 0.719 1.82 1.249 0.487 0.529 0.868 1.185 1.122 1.926s0.402 1.545 0.402 2.412c0 0.889-0.127 1.693-0.402 2.434-0.276 0.741-0.635 1.375-1.122 1.926-0.486 0.529-1.1 0.952-1.82 1.249s-1.524 0.466-2.455 0.466zM113.658 25.224c0.55 0 1.058-0.127 1.461-0.36 0.423-0.233 0.74-0.55 1.016-0.931 0.275-0.381 0.466-0.825 0.593-1.291 0.127-0.487 0.19-0.973 0.19-1.481 0-0.487-0.063-0.973-0.19-1.46s-0.318-0.91-0.593-1.291c-0.276-0.381-0.614-0.677-1.016-0.91-0.423-0.233-0.91-0.36-1.461-0.36s-1.058 0.127-1.46 0.36c-0.423 0.233-0.741 0.55-1.016 0.91-0.276 0.381-0.466 0.804-0.593 1.291s-0.191 0.973-0.191 1.46c0 0.508 0.064 0.995 0.191 1.481s0.317 0.91 0.593 1.291c0.275 0.381 0.613 0.698 1.016 0.931 0.423 0.254 0.909 0.36 1.46 0.36zM120.218 15.427h1.926v-3.47h2.539v3.449h2.285v1.883h-2.285v6.137c0 0.275 0.021 0.487 0.042 0.698 0.021 0.19 0.085 0.36 0.148 0.487 0.085 0.127 0.212 0.233 0.36 0.296 0.169 0.063 0.381 0.106 0.677 0.106 0.169 0 0.359 0 0.529-0.021s0.36-0.042 0.53-0.085v1.968c-0.276 0.042-0.55 0.063-0.826 0.085-0.275 0.042-0.529 0.042-0.825 0.042-0.677 0-1.207-0.063-1.608-0.19-0.403-0.127-0.719-0.317-0.953-0.55-0.232-0.254-0.381-0.55-0.466-0.91s-0.127-0.804-0.148-1.27v-6.772h-1.926v-1.883z"></path>
<path fill="#00b67a" style="fill: var(--color2, #00b67a)" d="M30.409 11.046h-11.618l-3.576-11.046-3.597 11.046-11.618-0.021 9.396 6.835-3.597 11.046 9.396-6.835 9.396 6.835-3.576-11.046 9.396-6.814z"></path>
<path fill="#005128" style="fill: var(--color3, #005128)" d="M21.818 20.357l-0.804-2.497-5.798 4.211 6.602-1.714z"></path>
</symbol>
  <symbol fill="none" xmlns="http://www.w3.org/2000/svg" viewBox="0 0 16 16" id="star">
    <path d="M6.95816 0.741543C7.27942 -0.247181 8.6782 -0.247181 8.99945 0.741543L10.1473 4.2742C10.291 4.71637 10.703 5.01575 11.1679 5.01575H14.8824C15.922 5.01575 16.3542 6.34607 15.5132 6.95713L12.5081 9.14044C12.132 9.41371 11.9746 9.89811 12.1183 10.3403L13.2661 13.8729C13.5874 14.8617 12.4557 15.6838 11.6147 15.0728L8.6096 12.8895C8.23347 12.6162 7.72415 12.6162 7.34801 12.8895L4.34295 15.0728C3.5019 15.6838 2.37026 14.8617 2.69151 13.8729L3.83935 10.3403C3.98302 9.89811 3.82563 9.41371 3.44949 9.14044L0.444434 6.95713C-0.396625 6.34607 0.0356224 5.01575 1.07523 5.01575H4.78969C5.25461 5.01575 5.66666 4.71637 5.81033 4.2742L6.95816 0.741543Z" fill="#F59E0B"></path>
  </symbol>
  <symbol fill="none" xmlns="http://www.w3.org/2000/svg" viewBox="0 0 112 43" id="Logo">
    <rect x="3.67383" y="4.97852" width="42.2674" height="37.3367" rx="6.96951" fill="#6C5FBC"></rect>
    <rect x="1.0075" y="1.0075" width="40.2524" height="35.3217" rx="5.96201" fill="#DBD9EE" stroke="#6C5FBC" stroke-width="2.01499"></rect>
    <path d="M32.624 12.0518L9.72243 11.9505" stroke="#6C5FBC" stroke-width="2.08432" stroke-linecap="round" stroke-linejoin="round"></path>
    <path d="M32.6096 16.6368L27.5162 16.6142C25.4095 16.6049 23.7056 14.5428 23.7133 12.0119C23.7211 9.48095 25.4376 7.43398 27.5443 7.4433L32.6377 7.46582" stroke="#6C5FBC" stroke-width="2.08432" stroke-linecap="round" stroke-linejoin="round"></path>
    <path d="M17.3611 26.7221L10.7067 26.648C10.1614 26.6456 9.70458 26.1076 9.6942 25.4525L9.64992 23.7254C9.63962 23.0405 10.0999 22.462 10.6699 22.4645L17.25 22.5383L17.3611 26.7221Z" stroke="#6C5FBC" stroke-width="2.08432" stroke-linecap="round" stroke-linejoin="round"></path>
    <path d="M27.8134 29.2108L18.4076 29.0948C17.8624 29.0924 17.4055 28.5544 17.3951 27.8993L17.2752 22.5242L32.555 22.7108L32.5653 23.3957C32.6421 26.6417 30.5025 29.2525 27.8134 29.2108Z" stroke="#6C5FBC" stroke-width="2.08432" stroke-linecap="round" stroke-linejoin="round"></path>
    <path d="M69.3081 21.6458C69.3081 22.0693 69.2798 22.4505 69.2234 22.7893H60.6472C60.7178 23.6363 61.0142 24.2999 61.5366 24.7798C62.0589 25.2598 62.7012 25.4998 63.4635 25.4998C64.5647 25.4998 65.3482 25.0269 65.8141 24.081H69.0116C68.6728 25.2104 68.0234 26.1421 67.0634 26.8762C66.1035 27.5962 64.9247 27.9562 63.5271 27.9562C62.3977 27.9562 61.3813 27.7092 60.4778 27.2151C59.5884 26.7068 58.8896 25.9939 58.3814 25.0763C57.8873 24.1587 57.6402 23.0999 57.6402 21.8999C57.6402 20.6859 57.8873 19.62 58.3814 18.7024C58.8755 17.7848 59.5672 17.0789 60.4566 16.5848C61.346 16.0907 62.3695 15.8437 63.5271 15.8437C64.6423 15.8437 65.6376 16.0836 66.5129 16.5636C67.4022 17.0436 68.0869 17.7283 68.5669 18.6177C69.061 19.4929 69.3081 20.5023 69.3081 21.6458ZM66.2376 20.7988C66.2235 20.0365 65.9482 19.4294 65.4117 18.9777C64.8753 18.5118 64.2188 18.2789 63.4424 18.2789C62.7083 18.2789 62.0871 18.5047 61.5789 18.9565C61.0848 19.3941 60.7813 20.0082 60.6683 20.7988H66.2376ZM70.7096 21.8576C70.7096 20.6717 70.9426 19.62 71.4084 18.7024C71.8884 17.7848 72.5308 17.0789 73.3354 16.5848C74.1542 16.0907 75.0648 15.8437 76.0671 15.8437C76.9424 15.8437 77.7047 16.0201 78.3541 16.373C79.0176 16.726 79.547 17.1707 79.9423 17.7071V16.0342H82.9281V27.7656H79.9423V26.0504C79.5611 26.601 79.0317 27.0598 78.3541 27.4268C77.6906 27.7797 76.9212 27.9562 76.0459 27.9562C75.0577 27.9562 74.1542 27.7021 73.3354 27.1939C72.5308 26.6857 71.8884 25.9727 71.4084 25.0551C70.9426 24.1234 70.7096 23.0575 70.7096 21.8576ZM79.9423 21.8999C79.9423 21.18 79.8011 20.5659 79.5188 20.0576C79.2364 19.5353 78.8553 19.14 78.3753 18.8718C77.8953 18.5894 77.38 18.4483 76.8294 18.4483C76.2789 18.4483 75.7707 18.5824 75.3048 18.8506C74.8389 19.1188 74.4578 19.5141 74.1613 20.0365C73.8789 20.5447 73.7378 21.1517 73.7378 21.8576C73.7378 22.5634 73.8789 23.1846 74.1613 23.721C74.4578 24.2434 74.8389 24.6457 75.3048 24.9281C75.7848 25.2104 76.293 25.3516 76.8294 25.3516C77.38 25.3516 77.8953 25.2175 78.3753 24.9492C78.8553 24.6669 79.2364 24.2716 79.5188 23.7634C79.8011 23.2411 79.9423 22.6199 79.9423 21.8999ZM89.2752 18.4695V24.1446C89.2752 24.5398 89.3669 24.8292 89.5505 25.0128C89.7481 25.1822 90.0728 25.2669 90.5246 25.2669H91.901V27.7656H90.0375C87.5388 27.7656 86.2894 26.5515 86.2894 24.1234V18.4695H84.8918V16.0342H86.2894V13.1332H89.2752V16.0342H91.901V18.4695H89.2752ZM96.9979 12.0955V27.7656H94.0333V12.0955H96.9979ZM111.15 16.0342L103.887 33.3137H100.732L103.273 27.4692L98.5717 16.0342H101.896L104.924 24.2293L107.995 16.0342H111.15Z" fill="#6C5FBC"></path>
  </symbol>
  <symbol fill="none" xmlns="http://www.w3.org/2000/svg" viewBox="0 0 34 25" id="burger-menu">
    <path d="M1.25 1H32.75H1.25Z" fill="#918F8F"></path>
    <path d="M1.25 1H32.75" stroke="#282828" stroke-width="2" stroke-linecap="round"></path>
    <path d="M1.25 12.1628H32.75H1.25Z" fill="#918F8F"></path>
    <path d="M1.25 12.1628H32.75" stroke="#282828" stroke-width="2" stroke-linecap="round"></path>
    <path d="M1.25 23.3257H32.75H1.25Z" fill="#918F8F"></path>
    <path d="M1.25 23.3257H32.75" stroke="#282828" stroke-width="2" stroke-linecap="round"></path>
  </symbol>
  <symbol fill="none" xmlns="http://www.w3.org/2000/svg" viewBox="0 0 20 20" id="arrow-right">
    <path d="M4.70605 10.0762H15.946" stroke="white" stroke-width="1.6055" stroke-linecap="round" stroke-linejoin="round"></path>
    <path d="M10.3242 4.4574L15.9442 10.0774L10.3242 15.6973" stroke="white" stroke-width="1.6055" stroke-linecap="round" stroke-linejoin="round"></path>
  </symbol>
  <symbol id="icon-close" viewBox="0 0 32 32">
<path fill="#918f8f" style="fill: var(--color1, #918f8f)" d="M1.455 1.455l29.089 29.091z"></path>
<path fill="none" stroke="#282828" style="stroke: var(--color2, #282828)" stroke-linejoin="miter" stroke-linecap="round" stroke-miterlimit="4" stroke-width="2.9091" d="M1.455 1.455l29.089 29.091"></path>
<path fill="#918f8f" style="fill: var(--color1, #918f8f)" d="M1.456 30.545l29.089-29.091z"></path>
<path fill="none" stroke="#282828" style="stroke: var(--color2, #282828)" stroke-linejoin="miter" stroke-linecap="round" stroke-miterlimit="4" stroke-width="2.9091" d="M1.456 30.545l29.089-29.091"></path>
</symbol>
<symbol id="icon-Logo" viewBox="0 0 32 32">
<path fill="#6c5fbc" style="fill: var(--color3, #6c5fbc)" d="M6.614 3.765h21.331c2.239 0 4.055 1.815 4.055 4.055v20.125c0 2.239-1.815 4.055-4.055 4.055h-21.331c-2.239 0-4.055-1.815-4.055-4.055v-20.125c0-2.239 1.815-4.055 4.055-4.055z"></path>
<path fill="#dbd9ee" style="fill: var(--color4, #dbd9ee); stroke: var(--color3, #6c5fbc)" stroke="#6c5fbc" stroke-linejoin="miter" stroke-linecap="butt" stroke-miterlimit="4" stroke-width="1.1724" d="M4.055 0.586h21.331c1.916 0 3.469 1.553 3.469 3.469v20.125c0 1.916-1.553 3.469-3.469 3.469h-21.331c-1.916 0-3.469-1.553-3.469-3.469v-20.125c0-1.916 1.553-3.469 3.469-3.469z"></path>
<path fill="none" stroke="#6c5fbc" style="stroke: var(--color3, #6c5fbc)" stroke-linejoin="round" stroke-linecap="round" stroke-miterlimit="4" stroke-width="1.2127" d="M22.722 9.113l-15.952-0.077"></path>
<path fill="none" stroke="#6c5fbc" style="stroke: var(--color3, #6c5fbc)" stroke-linejoin="round" stroke-linecap="round" stroke-miterlimit="4" stroke-width="1.2127" d="M22.712 12.581l-3.548-0.017c-1.467-0.007-2.654-1.566-2.649-3.48s1.201-3.462 2.668-3.455l3.548 0.017"></path>
<path fill="none" stroke="#6c5fbc" style="stroke: var(--color3, #6c5fbc)" stroke-linejoin="round" stroke-linecap="round" stroke-miterlimit="4" stroke-width="1.2127" d="M12.090 20.208l-4.635-0.056c-0.38-0.002-0.698-0.409-0.705-0.904l-0.031-1.306c-0.007-0.518 0.313-0.955 0.711-0.954l4.583 0.056 0.077 3.164z"></path>
<path fill="none" stroke="#6c5fbc" style="stroke: var(--color3, #6c5fbc)" stroke-linejoin="round" stroke-linecap="round" stroke-miterlimit="4" stroke-width="1.2127" d="M19.371 22.090l-6.552-0.088c-0.38-0.002-0.698-0.409-0.705-0.904l-0.084-4.065 10.643 0.141 0.007 0.518c0.053 2.455-1.437 4.429-3.31 4.398z"></path>
</symbol>
<symbol id="icon-star-empty" viewBox="0 0 32 32">
<path d="M32 12.408l-11.056-1.607-4.944-10.018-4.944 10.018-11.056 1.607 8 7.798-1.889 11.011 9.889-5.199 9.889 5.199-1.889-11.011 8-7.798zM16 23.547l-6.983 3.671 1.334-7.776-5.65-5.507 7.808-1.134 3.492-7.075 3.492 7.075 7.807 1.134-5.65 5.507 1.334 7.776-6.983-3.671z"></path>
</symbol>
<symbol id="icon-heart" viewBox="0 0 32 32">
<path d="M23.6 2c-3.363 0-6.258 2.736-7.599 5.594-1.342-2.858-4.237-5.594-7.601-5.594-4.637 0-8.4 3.764-8.4 8.401 0 9.433 9.516 11.906 16.001 21.232 6.13-9.268 15.999-12.1 15.999-21.232 0-4.637-3.763-8.401-8.4-8.401z"></path>
</symbol>
<symbol id="icon-Starfiol" viewBox="0 0 31 32">
<path fill="#6c5fbc" style="fill: var(--color1, #6c5fbc)" d="M18.962 25.703c2.020 1.105 3.796-0.234 3.409-2.579l-0.693-4.21 2.938-2.981c1.634-1.658 0.959-3.831-1.302-4.173l-4.060-0.614-1.807-3.811c-1.012-2.135-3.209-2.158-4.223-0.019l-1.816 3.83-4.060 0.614c-2.258 0.342-2.938 2.512-1.302 4.173l2.938 2.981-0.694 4.21c-0.386 2.341 1.387 3.686 3.409 2.579l3.631-1.988 3.631 1.988z"></path>
</symbol>
<symbol id="icon-Bookmark" viewBox="0 0 32 32">
<path fill="#dbd9ee" style="fill: var(--color1, #dbd9ee)" d="M31.428 15.807c0 8.639-7.004 15.643-15.643 15.643s-15.643-7.004-15.643-15.643c0-8.639 7.004-15.643 15.643-15.643s15.643 7.004 15.643 15.643z"></path>
<path fill="#6c5fbc" style="fill: var(--color2, #6c5fbc)" d="M19.213 8.495c-2.265-0.38-4.589-0.38-6.853 0-0.827 0.139-1.486 0.774-1.652 1.597-0.76 3.773-0.801 7.655-0.122 11.443l0.277 1.542c0.085 0.476 0.665 0.666 1.015 0.333l3.338-3.171c0.32-0.304 0.823-0.304 1.143 0l3.338 3.171c0.35 0.333 0.93 0.143 1.015-0.333l0.277-1.542c0.679-3.788 0.638-7.671-0.122-11.444-0.166-0.823-0.825-1.459-1.652-1.597z"></path>
</symbol>
</defs>
</svg>
