<svg xmlns="http://www.w3.org/2000/svg" aria-hidden="true" style="position:absolute;width:0;height:0;overflow:hidden">
  <defs>
    <symbol id="icon-trustpilot" viewBox="0 0 127 32">
      <path d="M33.372 11.046h12.845v2.391h-5.058v13.48h-2.772v-13.48h-5.036l.021-2.391zm12.295 4.381h2.37v2.222h.042c.085-.317.233-.614.444-.91s.466-.571.783-.804a3.48 3.48 0 0 1 1.016-.593c.36-.148.741-.233 1.122-.233.296 0 .508.021.614.021.106.021.233.042.339.042v2.434c-.169-.042-.36-.063-.55-.085s-.36-.042-.55-.042c-.423 0-.825.085-1.206.254s-.698.423-.995.741c-.275.339-.508.741-.677 1.227s-.254 1.058-.254 1.693v5.46h-2.539l.042-11.427zm18.368 11.49h-2.497v-1.608h-.042c-.317.593-.783 1.037-1.397 1.397s-1.249.529-1.883.529c-1.502 0-2.603-.36-3.28-1.122-.677-.741-1.016-1.883-1.016-3.386v-7.301h2.539v7.047c0 1.016.19 1.735.593 2.137.381.423.931.635 1.629.635.529 0 .973-.085 1.333-.254s.656-.381.868-.656c.233-.275.381-.614.487-.995s.148-.804.148-1.249v-6.666h2.539v11.491h-.021zm4.317-3.682c.085.741.36 1.249.846 1.566.487.296 1.079.444 1.756.444.233 0 .508-.021.804-.063s.593-.106.846-.212c.275-.106.487-.254.656-.466s.254-.466.233-.783c-.021-.317-.127-.593-.36-.804s-.508-.36-.846-.508c-.339-.127-.741-.233-1.185-.317s-.889-.19-1.354-.296c-.466-.106-.931-.233-1.375-.381s-.825-.339-1.185-.614a2.63 2.63 0 0 1-.825-.973c-.212-.402-.317-.868-.317-1.46 0-.635.148-1.143.466-1.566.296-.423.698-.762 1.164-1.016s.995-.444 1.566-.55a8.947 8.947 0 0 1 1.629-.148c.593 0 1.164.063 1.693.19s1.037.317 1.46.614c.444.275.804.656 1.079 1.1.296.444.466.995.55 1.629h-2.645c-.127-.614-.402-1.016-.825-1.227-.444-.212-.931-.317-1.502-.317-.169 0-.402.021-.635.042a3.746 3.746 0 0 0-.698.169c-.212.085-.402.212-.55.36s-.233.36-.233.614c0 .317.106.55.317.741s.487.339.846.487c.339.127.741.233 1.185.317s.91.19 1.375.296c.466.106.91.233 1.354.381s.846.339 1.185.614c.339.254.635.571.846.952s.317.868.317 1.418c0 .677-.148 1.249-.466 1.735-.317.466-.719.868-1.206 1.164s-1.058.508-1.651.656c-.614.127-1.206.212-1.799.212-.719 0-1.397-.085-2.01-.254s-1.164-.423-1.608-.741a3.56 3.56 0 0 1-1.058-1.249c-.254-.487-.402-1.079-.423-1.778h2.561v.021h.021zm8.358-7.808h1.926v-3.47h2.539v3.449h2.285v1.883h-2.285v6.137c0 .275.021.487.042.698.021.19.085.36.148.487a.826.826 0 0 0 .36.296c.169.063.381.106.677.106.169 0 .36 0 .529-.021s.36-.042.529-.085v1.968c-.275.042-.55.063-.825.085-.275.042-.529.042-.825.042-.677 0-1.206-.063-1.608-.19s-.719-.317-.952-.55c-.233-.254-.381-.55-.466-.91s-.127-.804-.148-1.27V17.31H76.71v-1.883zm8.528 0h2.391v1.566h.042c.36-.677.846-1.143 1.481-1.439s1.312-.444 2.074-.444c.91 0 1.693.148 2.37.487a4.453 4.453 0 0 1 1.672 1.312c.444.55.783 1.206.995 1.947s.339 1.545.339 2.37c0 .783-.106 1.524-.296 2.243-.212.719-.508 1.375-.91 1.926s-.91.995-1.545 1.333c-.635.339-1.354.508-2.201.508-.36 0-.741-.042-1.1-.106s-.719-.169-1.058-.317a3.804 3.804 0 0 1-.931-.571 3.226 3.226 0 0 1-.719-.804H87.8v5.735h-2.539V15.429h-.021zm8.867 5.756a5.12 5.12 0 0 0-.212-1.502c-.127-.487-.339-.91-.614-1.291s-.614-.677-.995-.91c-.402-.233-.868-.339-1.375-.339-1.058 0-1.862.36-2.412 1.1-.529.741-.804 1.735-.804 2.963 0 .593.063 1.122.212 1.608s.339.91.635 1.27c.275.36.614.635 1.016.846s.846.317 1.375.317c.593 0 1.058-.127 1.46-.36s.719-.55.995-.91c.254-.381.444-.804.55-1.291.106-.508.169-.995.169-1.502zm4.465-10.137h2.539v2.391H98.57v-2.391zm0 4.381h2.539v11.491H98.57V15.427zm4.803-4.381h2.539v15.871h-2.539V11.046zm10.285 16.189c-.909 0-1.735-.148-2.455-.466s-1.312-.719-1.82-1.249c-.486-.529-.867-1.185-1.121-1.926s-.403-1.566-.403-2.434c0-.868.127-1.672.403-2.412a5.645 5.645 0 0 1 1.121-1.926c.487-.529 1.1-.952 1.82-1.249s1.545-.466 2.455-.466c.91 0 1.735.148 2.455.466a5.258 5.258 0 0 1 1.82 1.249c.487.529.868 1.185 1.122 1.926s.402 1.545.402 2.412c0 .889-.127 1.693-.402 2.434-.276.741-.635 1.375-1.122 1.926-.486.529-1.1.952-1.82 1.249s-1.524.466-2.455.466zm0-2.011c.55 0 1.058-.127 1.461-.36.423-.233.74-.55 1.016-.931a3.99 3.99 0 0 0 .593-1.291 5.801 5.801 0 0 0 0-2.941 3.796 3.796 0 0 0-.593-1.291 3.228 3.228 0 0 0-1.016-.91c-.423-.233-.91-.36-1.461-.36s-1.058.127-1.46.36c-.423.233-.741.55-1.016.91-.276.381-.466.804-.593 1.291a5.762 5.762 0 0 0 0 2.941c.127.486.317.91.593 1.291.275.381.613.698 1.016.931.423.254.909.36 1.46.36zm6.56-9.797h1.926v-3.47h2.539v3.449h2.285v1.883h-2.285v6.137c0 .275.021.487.042.698.021.19.085.36.148.487a.826.826 0 0 0 .36.296c.169.063.381.106.677.106.169 0 .359 0 .529-.021s.36-.042.53-.085v1.968c-.276.042-.55.063-.826.085-.275.042-.529.042-.825.042-.677 0-1.207-.063-1.608-.19a2.313 2.313 0 0 1-.953-.55c-.232-.254-.381-.55-.466-.91s-.127-.804-.148-1.27V17.31h-1.926v-1.883z" style="fill:var(--color1, #000)"/>
      <path fill="#00b67a" d="M30.409 11.046H18.791L15.215 0l-3.597 11.046L0 11.025l9.396 6.835-3.597 11.046 9.396-6.835 9.396 6.835-3.576-11.046 9.396-6.814z" style="fill:var(--color2, #00b67a)"/>
      <path fill="#005128" d="m21.818 20.357-.804-2.497-5.798 4.211 6.602-1.714z" style="fill:var(--color3, #005128)"/>
    </symbol>
    <symbol xmlns="http://www.w3.org/2000/svg" id="star" fill="none" viewBox="0 0 16 16">
      <path fill="#F59E0B" d="M6.958.742c.321-.99 1.72-.99 2.041 0l1.148 3.532c.144.442.556.742 1.02.742h3.715c1.04 0 1.472 1.33.631 1.941L12.508 9.14a1.073 1.073 0 0 0-.39 1.2l1.148 3.533c.321.989-.81 1.81-1.651 1.2L8.61 12.889a1.073 1.073 0 0 0-1.262 0l-3.005 2.184c-.841.61-1.973-.211-1.651-1.2l1.147-3.533a1.073 1.073 0 0 0-.39-1.2L.444 6.957c-.84-.61-.408-1.941.631-1.941H4.79c.465 0 .877-.3 1.02-.742L6.958.742Z"/>
    </symbol>
    <symbol xmlns="http://www.w3.org/2000/svg" id="Logo" fill="none" viewBox="0 0 112 43">
      <rect width="42.267" height="37.337" x="3.674" y="4.979" fill="#6C5FBC" rx="6.97"/>
      <rect width="40.252" height="35.322" x="1.008" y="1.008" fill="#DBD9EE" stroke="#6C5FBC" stroke-width="2.015" rx="5.962"/>
      <path stroke="#6C5FBC" stroke-linecap="round" stroke-linejoin="round" stroke-width="2.084" d="M32.624 12.052 9.722 11.95M32.61 16.637l-5.094-.023c-2.106-.01-3.81-2.071-3.803-4.602.008-2.531 1.725-4.578 3.831-4.569l5.094.023M17.361 26.722l-6.654-.074c-.546-.002-1.002-.54-1.013-1.195l-.044-1.728c-.01-.684.45-1.263 1.02-1.26l6.58.073.111 4.184ZM27.813 29.21l-9.405-.115c-.546-.003-1.003-.54-1.013-1.196l-.12-5.375 15.28.187.01.685c.077 3.246-2.062 5.857-4.752 5.815Z"/>
      <path fill="#6C5FBC" d="M69.308 21.646c0 .423-.028.805-.085 1.143h-8.576c.07.847.367 1.51.89 1.99.522.48 1.164.72 1.927.72 1.1 0 1.884-.472 2.35-1.418h3.198c-.34 1.13-.989 2.061-1.949 2.795-.96.72-2.138 1.08-3.536 1.08-1.13 0-2.146-.247-3.05-.74a5.455 5.455 0 0 1-2.096-2.14c-.494-.917-.74-1.976-.74-3.176 0-1.214.246-2.28.74-3.198a5.171 5.171 0 0 1 2.076-2.117c.889-.494 1.913-.741 3.07-.741 1.115 0 2.11.24 2.986.72a4.967 4.967 0 0 1 2.054 2.054c.494.875.741 1.884.741 3.028Zm-3.07-.847c-.014-.762-.29-1.37-.826-1.821-.537-.466-1.193-.7-1.97-.7-.734 0-1.355.227-1.863.678-.494.438-.798 1.052-.91 1.843h5.569Zm4.472 1.059c0-1.186.233-2.238.698-3.156.48-.917 1.123-1.623 1.927-2.117.82-.494 1.73-.741 2.732-.741.875 0 1.638.176 2.287.529.664.353 1.193.798 1.588 1.334v-1.673h2.986v11.732h-2.986V26.05c-.38.551-.91 1.01-1.588 1.377-.663.353-1.433.53-2.308.53a5.039 5.039 0 0 1-2.71-.763c-.805-.508-1.448-1.221-1.928-2.139-.465-.932-.698-1.997-.698-3.197Zm9.232.042c0-.72-.14-1.334-.423-1.842a2.898 2.898 0 0 0-1.144-1.186 2.997 2.997 0 0 0-1.546-.424c-.55 0-1.058.134-1.524.403-.466.268-.847.663-1.144 1.186-.282.508-.423 1.115-.423 1.82 0 .706.14 1.328.423 1.864.297.522.678.925 1.144 1.207.48.282.988.424 1.524.424.551 0 1.066-.134 1.546-.403a3.08 3.08 0 0 0 1.144-1.186c.282-.522.423-1.143.423-1.863Zm9.333-3.43v5.675c0 .395.092.684.275.868.198.17.523.254.975.254H91.9v2.499h-1.864c-2.498 0-3.748-1.214-3.748-3.643V18.47h-1.397v-2.435h1.397v-2.9h2.986v2.9h2.626v2.436h-2.626Zm7.723-6.374v15.67h-2.965v-15.67h2.965Zm14.152 3.938-7.263 17.28h-3.155l2.541-5.845-4.701-11.435h3.324l3.028 8.195 3.071-8.195h3.155Z"/>
    </symbol>
    <symbol xmlns="http://www.w3.org/2000/svg" id="burger-menu" fill="none" viewBox="0 0 34 25">
      <path fill="#918F8F" d="M1.25 1h31.5-31.5Z"/>
      <path stroke="#282828" stroke-linecap="round" stroke-width="2" d="M1.25 1h31.5"/>
      <path fill="#918F8F" d="M1.25 12.163h31.5-31.5Z"/>
      <path stroke="#282828" stroke-linecap="round" stroke-width="2" d="M1.25 12.163h31.5"/>
      <path fill="#918F8F" d="M1.25 23.326h31.5-31.5Z"/>
      <path stroke="#282828" stroke-linecap="round" stroke-width="2" d="M1.25 23.326h31.5"/>
    </symbol>
    <symbol xmlns="http://www.w3.org/2000/svg" id="arrow-right" fill="none" viewBox="0 0 20 20">
      <path stroke-linecap="round" stroke-linejoin="round" stroke-width="1.605" d="M4.706 10.076h11.24M10.324 4.457l5.62 5.62-5.62 5.62"/>
    </symbol>
    <symbol id="icon-close" viewBox="0 0 32 32">
      <path fill="#918f8f" d="m1.455 1.455 29.089 29.091z" style="fill:var(--color1, #918f8f)"/>
      <path fill="none" stroke="#282828" stroke-linecap="round" stroke-width="2.909" d="m1.455 1.455 29.089 29.091" style="stroke:var(--color2, #282828)"/>
      <path fill="#918f8f" d="M1.456 30.545 30.545 1.454z" style="fill:var(--color1, #918f8f)"/>
      <path fill="none" stroke="#282828" stroke-linecap="round" stroke-width="2.909" d="M1.456 30.545 30.545 1.454" style="stroke:var(--color2, #282828)"/>
    </symbol>
    <symbol id="icon-Logo" viewBox="0 0 32 32">
      <path fill="#6c5fbc" d="M6.614 3.765h21.331A4.055 4.055 0 0 1 32 7.82v20.125A4.055 4.055 0 0 1 27.945 32H6.614a4.055 4.055 0 0 1-4.055-4.055V7.82a4.055 4.055 0 0 1 4.055-4.055z" style="fill:var(--color3, #6c5fbc)"/>
      <path fill="#dbd9ee" stroke="#6c5fbc" stroke-width="1.172" d="M4.055.586h21.331a3.469 3.469 0 0 1 3.469 3.469V24.18a3.469 3.469 0 0 1-3.469 3.469H4.055A3.469 3.469 0 0 1 .586 24.18V4.055A3.469 3.469 0 0 1 4.055.586z" style="fill:var(--color4, #dbd9ee);stroke:var(--color3, #6c5fbc)"/>
      <path fill="none" stroke="#6c5fbc" stroke-linecap="round" stroke-linejoin="round" stroke-width="1.213" d="M22.722 9.113 6.77 9.036M22.712 12.581l-3.548-.017c-1.467-.007-2.654-1.566-2.649-3.48s1.201-3.462 2.668-3.455l3.548.017M12.09 20.208l-4.635-.056c-.38-.002-.698-.409-.705-.904l-.031-1.306c-.007-.518.313-.955.711-.954l4.583.056.077 3.164zM19.371 22.09l-6.552-.088c-.38-.002-.698-.409-.705-.904l-.084-4.065 10.643.141.007.518c.053 2.455-1.437 4.429-3.31 4.398z" style="stroke:var(--color3, #6c5fbc)"/>
    </symbol>
    <symbol id="icon-heart" viewBox="0 0 32 32">
      <path d="M23.6 2c-3.363 0-6.258 2.736-7.599 5.594C14.659 4.736 11.764 2 8.4 2 3.763 2 0 5.764 0 10.401c0 9.433 9.516 11.906 16.001 21.232C22.131 22.365 32 19.533 32 10.401 32 5.764 28.237 2 23.6 2z"/>
    </symbol>
    <symbol id="icon-Starfiol" viewBox="0 0 31 32">
      <path fill="#6c5fbc" d="M18.962 25.703c2.02 1.105 3.796-.234 3.409-2.579l-.693-4.21 2.938-2.981c1.634-1.658.959-3.831-1.302-4.173l-4.06-.614-1.807-3.811c-1.012-2.135-3.209-2.158-4.223-.019l-1.816 3.83-4.06.614c-2.258.342-2.938 2.512-1.302 4.173l2.938 2.981-.694 4.21c-.386 2.341 1.387 3.686 3.409 2.579l3.631-1.988 3.631 1.988z" style="fill:var(--color1, #6c5fbc)"/>
    </symbol>
    <symbol id="icon-Bookmark" viewBox="0 0 32 32">
      <path fill="#dbd9ee" d="M31.428 15.807c0 8.639-7.004 15.643-15.643 15.643S.142 24.446.142 15.807C.142 7.168 7.146.164 15.785.164s15.643 7.004 15.643 15.643z" style="fill:var(--color1, #dbd9ee)"/>
      <path fill="#6c5fbc" d="M19.213 8.495a20.74 20.74 0 0 0-6.853 0 2.028 2.028 0 0 0-1.652 1.597 30.603 30.603 0 0 0-.122 11.443l.277 1.542a.606.606 0 0 0 1.015.333l3.338-3.171a.83.83 0 0 1 1.143 0l3.338 3.171c.35.333.93.143 1.015-.333l.277-1.542a30.609 30.609 0 0 0-.122-11.444 2.027 2.027 0 0 0-1.652-1.597z" style="fill:var(--color2, #6c5fbc)"/>
    </symbol>
    <symbol id="icon-facebook" viewBox="0 0 32 32">
      <path d="M19 6h5V0h-5c-3.86 0-7 3.14-7 7v3H8v6h4v16h6V16h5l1-6h-6V7c0-.542.458-1 1-1z"/>
    </symbol>
    <symbol id="icon-instagram" viewBox="0 0 32 32">
      <path d="M16 2.881c4.275 0 4.781.019 6.462.094 1.563.069 2.406.331 2.969.55a4.952 4.952 0 0 1 1.837 1.194 5.015 5.015 0 0 1 1.2 1.838c.219.563.481 1.412.55 2.969.075 1.688.094 2.194.094 6.463s-.019 4.781-.094 6.463c-.069 1.563-.331 2.406-.55 2.969a4.94 4.94 0 0 1-1.194 1.837 5.02 5.02 0 0 1-1.837 1.2c-.563.219-1.413.481-2.969.55-1.688.075-2.194.094-6.463.094s-4.781-.019-6.463-.094c-1.563-.069-2.406-.331-2.969-.55a4.952 4.952 0 0 1-1.838-1.194 5.02 5.02 0 0 1-1.2-1.837c-.219-.563-.481-1.413-.55-2.969-.075-1.688-.094-2.194-.094-6.463s.019-4.781.094-6.463c.069-1.563.331-2.406.55-2.969a4.964 4.964 0 0 1 1.194-1.838 5.015 5.015 0 0 1 1.838-1.2c.563-.219 1.412-.481 2.969-.55 1.681-.075 2.188-.094 6.463-.094zM16 0c-4.344 0-4.887.019-6.594.094-1.7.075-2.869.35-3.881.744-1.056.412-1.95.956-2.837 1.85a7.833 7.833 0 0 0-1.85 2.831C.444 6.538.169 7.7.094 9.4.019 11.113 0 11.656 0 16s.019 4.887.094 6.594c.075 1.7.35 2.869.744 3.881.413 1.056.956 1.95 1.85 2.837a7.82 7.82 0 0 0 2.831 1.844c1.019.394 2.181.669 3.881.744 1.706.075 2.25.094 6.594.094s4.888-.019 6.594-.094c1.7-.075 2.869-.35 3.881-.744 1.05-.406 1.944-.956 2.831-1.844s1.438-1.781 1.844-2.831c.394-1.019.669-2.181.744-3.881.075-1.706.094-2.25.094-6.594s-.019-4.887-.094-6.594c-.075-1.7-.35-2.869-.744-3.881a7.506 7.506 0 0 0-1.831-2.844A7.82 7.82 0 0 0 26.482.843C25.463.449 24.301.174 22.601.099c-1.712-.081-2.256-.1-6.6-.1z"/>
      <path d="M16 7.781c-4.537 0-8.219 3.681-8.219 8.219s3.681 8.219 8.219 8.219 8.219-3.681 8.219-8.219A8.221 8.221 0 0 0 16 7.781zm0 13.55a5.331 5.331 0 1 1 0-10.663 5.331 5.331 0 0 1 0 10.663zM26.462 7.456a1.919 1.919 0 1 1-3.838 0 1.919 1.919 0 0 1 3.838 0z"/>
    </symbol>
    <symbol id="icon-twitter" viewBox="0 0 32 32">
      <path d="M32 7.075a12.941 12.941 0 0 1-3.769 1.031 6.601 6.601 0 0 0 2.887-3.631 13.21 13.21 0 0 1-4.169 1.594A6.565 6.565 0 0 0 22.155 4a6.563 6.563 0 0 0-6.563 6.563c0 .512.056 1.012.169 1.494A18.635 18.635 0 0 1 2.23 5.195a6.56 6.56 0 0 0-.887 3.3 6.557 6.557 0 0 0 2.919 5.463 6.565 6.565 0 0 1-2.975-.819v.081a6.565 6.565 0 0 0 5.269 6.437 6.574 6.574 0 0 1-2.968.112 6.588 6.588 0 0 0 6.131 4.563 13.17 13.17 0 0 1-9.725 2.719 18.568 18.568 0 0 0 10.069 2.95c12.075 0 18.681-10.006 18.681-18.681 0-.287-.006-.569-.019-.85A13.216 13.216 0 0 0 32 7.076z"/>
    </symbol>
    <symbol id="icon-linkedin" viewBox="0 0 32 32">
      <path d="M12 12h5.535v2.837h.079c.77-1.381 2.655-2.837 5.464-2.837C28.92 12 30 15.637 30 20.367V30h-5.769v-8.54c0-2.037-.042-4.657-3.001-4.657-3.005 0-3.463 2.218-3.463 4.509V30H12V12zM2 12h6v18H2V12zM8 7a3 3 0 1 1-6 0 3 3 0 0 1 6 0z"/>
    </symbol>
    <svg width="0" height="0" class="hidden">
  <symbol id="icon-plus" viewBox="0 0 32 32">
<path d="M31 12h-11v-11c0-0.552-0.448-1-1-1h-6c-0.552 0-1 0.448-1 1v11h-11c-0.552 0-1 0.448-1 1v6c0 0.552 0.448 1 1 1h11v11c0 0.552 0.448 1 1 1h6c0.552 0 1-0.448 1-1v-11h11c0.552 0 1-0.448 1-1v-6c0-0.552-0.448-1-1-1z"></path>
</symbol>
<symbol id="icon-heart-none" viewBox="0 0 37 32">
<path d="M0.036 11.222c0-5.705 5.005-10.098 10.88-10.098 3.028 0 5.693 1.42 7.606 3.257 1.912-1.837 4.577-3.257 7.606-3.257 5.875 0 10.88 4.393 10.88 10.098 0 3.908-1.667 7.345-3.976 10.25-2.305 2.9-5.32 5.362-8.207 7.362-1.103 0.764-2.218 1.469-3.239 1.989-0.959 0.488-2.061 0.935-3.064 0.935s-2.105-0.447-3.064-0.935c-1.021-0.52-2.136-1.225-3.239-1.989-2.887-2-5.902-4.461-8.207-7.362-2.309-2.905-3.976-6.342-3.976-10.25zM10.916 4.292c-4.393 0-7.711 3.231-7.711 6.929 0 2.965 1.259 5.726 3.287 8.278 2.033 2.558 4.768 4.814 7.531 6.728 1.046 0.724 2.030 1.341 2.873 1.77 0.905 0.461 1.429 0.59 1.626 0.59s0.721-0.13 1.626-0.59c0.842-0.429 1.827-1.045 2.873-1.77 2.763-1.914 5.498-4.171 7.531-6.728 2.029-2.552 3.288-5.313 3.288-8.278 0-3.699-3.319-6.929-7.711-6.929-2.523 0-4.878 1.507-6.349 3.42-0.3 0.39-0.764 0.619-1.256 0.619s-0.956-0.229-1.256-0.619c-1.471-1.913-3.827-3.42-6.35-3.42z"></path>
</symbol>
</svg>
  </defs>
</svg>
