<svg xmlns="http://www.w3.org/2000/svg" width="121" height="44" fill="none">
  <path fill="#6C5FBC" d="M120.207 4.57a.942.942 0 1 0-1.792-.583l1.792.584Zm-24.39 22.752.147.93-.147-.93ZM67.886 11.75l.942-.008-.942.008Zm8.366-10.122.066.94-.066-.94Zm8.881 7.384-.886.32.886-.32ZM61.44 34.031l.103.936-.104-.937ZM35.996 17.98l.941-.054-.94.054Zm6.053-7.797.232.913-.232-.913ZM23.72 42.347l.075-.94-.075.94ZM1.354 28.445l.214-.917a.942.942 0 0 0-1.103 1.23l.889-.313Zm8.249 2.89a.942.942 0 1 0 .427-1.836l-.427 1.835Zm-6.12 6.033a.942.942 0 1 0 1.778-.623l-1.778.623ZM119.31 4.279l-.896-.292v.002a.033.033 0 0 0-.003.008l-.013.039-.055.16c-.051.143-.127.355-.231.629a41.87 41.87 0 0 1-.96 2.291 46.132 46.132 0 0 1-4.042 7.15c-3.699 5.331-9.377 10.853-17.441 12.126l.294 1.86c8.793-1.386 14.861-7.386 18.695-12.911a47.995 47.995 0 0 0 4.21-7.446 42.59 42.59 0 0 0 1.004-2.4 24.152 24.152 0 0 0 .311-.855l.017-.05.004-.013.001-.004.001-.001-.896-.293ZM95.67 26.392c-6.298.993-13.054-.168-18.22-2.87-5.18-2.71-8.583-6.859-8.622-11.78l-1.885.014c.047 5.884 4.115 10.548 9.633 13.435 5.531 2.894 12.698 4.117 19.388 3.062l-.294-1.861Zm-26.842-14.65c-.012-1.443.586-3.692 1.872-5.62 1.274-1.909 3.138-3.384 5.617-3.555l-.13-1.88c-3.235.224-5.567 2.16-7.054 4.39-1.475 2.21-2.204 4.824-2.19 6.68l1.885-.016Zm7.49-9.175c2.344-.163 4.022.763 5.277 2.103 1.283 1.369 2.112 3.167 2.652 4.661l1.772-.64c-.572-1.584-1.507-3.664-3.049-5.31C81.4 1.706 79.195.48 76.187.687l.13 1.88Zm7.93 6.764c2.151 5.958-.144 11.46-4.77 15.755-4.644 4.31-11.533 7.278-18.143 8.008l.207 1.873c6.969-.77 14.247-3.887 19.217-8.5 4.986-4.627 7.75-10.885 5.26-17.776l-1.772.64ZM61.334 33.094c-5.669.625-11.66-.43-16.282-3.028-4.604-2.588-7.802-6.666-8.115-12.139l-1.881.108c.358 6.255 4.043 10.846 9.072 13.673 5.011 2.817 11.406 3.922 17.413 3.259l-.207-1.873ZM36.938 17.927c-.098-1.716.315-3.167 1.171-4.301.859-1.136 2.224-2.034 4.173-2.53l-.464-1.826c-2.276.579-4.046 1.677-5.212 3.22-1.168 1.545-1.669 3.455-1.55 5.545l1.882-.108Zm5.344-6.83c1.781-.453 3.222-.091 4.439.784 1.254.903 2.315 2.389 3.18 4.238l1.707-.8c-.935-1.998-2.168-3.803-3.787-4.968-1.657-1.192-3.668-1.674-6.003-1.08l.464 1.826Zm7.62 5.022c2.897 6.191-.167 12.68-5.933 17.67-5.752 4.977-13.853 8.122-20.173 7.618l-.15 1.879c6.944.553 15.525-2.853 21.556-8.072 6.018-5.207 9.839-12.56 6.406-19.894l-1.706.799ZM23.795 41.407c-4.907-.39-10.308-3.705-14.58-7.063a68.801 68.801 0 0 1-6.65-5.99 37.896 37.896 0 0 1-.516-.543v-.001h-.001l-.695.636a151.614 151.614 0 0 0-.694.636c0 .001 0 .002.002.003l.007.008.028.03.107.114a62.524 62.524 0 0 0 1.927 1.941 70.674 70.674 0 0 0 5.32 4.648c4.308 3.385 10.09 7.021 15.595 7.46l.15-1.879ZM1.14 29.363l8.463 1.971.427-1.835-8.462-1.971-.428 1.835Zm-.675-.606 3.018 8.61 1.778-.622-3.018-8.611-1.778.623Z"/>
</svg>
